<mxfile host="Electron" agent="Mozilla/5.0 (Windows NT 10.0; Win64; x64) AppleWebKit/537.36 (KHTML, like Gecko) draw.io/25.0.1 Chrome/128.0.6613.186 Electron/32.2.6 Safari/537.36" version="25.0.1">
  <diagram name="第 1 页" id="_UOMD7yQIgID4104qYtB">
    <mxGraphModel dx="1594" dy="945" grid="1" gridSize="10" guides="1" tooltips="1" connect="1" arrows="1" fold="1" page="1" pageScale="1" pageWidth="827" pageHeight="1169" math="0" shadow="0">
      <root>
        <mxCell id="0" />
        <mxCell id="1" parent="0" />
        <mxCell id="HEp67iWyr1RidV_tDCYu-369" value="" style="endArrow=classic;html=1;rounded=0;strokeColor=#FF0000;" parent="1" edge="1">
          <mxGeometry width="50" height="50" relative="1" as="geometry">
            <mxPoint x="627" y="360" as="sourcePoint" />
            <mxPoint x="77" y="360" as="targetPoint" />
          </mxGeometry>
        </mxCell>
        <mxCell id="HEp67iWyr1RidV_tDCYu-370" value="" style="endArrow=classic;html=1;rounded=0;strokeColor=#FF0000;" parent="1" edge="1">
          <mxGeometry width="50" height="50" relative="1" as="geometry">
            <mxPoint x="717" y="350" as="sourcePoint" />
            <mxPoint x="187" y="350" as="targetPoint" />
          </mxGeometry>
        </mxCell>
        <mxCell id="HEp67iWyr1RidV_tDCYu-398" value="&lt;div&gt;&lt;span style=&quot;font-size: 14px;&quot;&gt;灯阵列：W X H&lt;/span&gt;&lt;span style=&quot;font-size: 14px;&quot;&gt;&lt;br&gt;&lt;/span&gt;&lt;/div&gt;&lt;div&gt;&lt;span style=&quot;font-size: 14px;&quot;&gt;存储器页数：L&lt;/span&gt;&lt;/div&gt;&lt;div&gt;&lt;span style=&quot;font-size: 14px;&quot;&gt;位置 模块名 开始id 实体数目&lt;/span&gt;&lt;/div&gt;&lt;span style=&quot;font-size: 14px;&quot;&gt;左上 灯 1 W*H&lt;/span&gt;&lt;div&gt;&lt;span style=&quot;font-size: 14px;&quot;&gt;左下：解码器 W*H+1 W*H*8&lt;/span&gt;&lt;/div&gt;&lt;div&gt;&lt;span style=&quot;font-size: 14px;&quot;&gt;右下：存储器 W*H*9+1 W*2*L&lt;/span&gt;&lt;/div&gt;&lt;div&gt;&lt;span style=&quot;font-size: 14px;&quot;&gt;右上：时钟 W*H*9+W*2*L+1 3&lt;/span&gt;&lt;/div&gt;&lt;div&gt;&lt;span style=&quot;font-size: 14px;&quot;&gt;模块内实体id增加方向为从上到下从左到右&lt;/span&gt;&lt;/div&gt;&lt;div&gt;&lt;span style=&quot;font-size: 14px;&quot;&gt;存储器id按帧序号增加，每帧内同样为从上到下从左到右&lt;/span&gt;&lt;/div&gt;" style="rounded=0;whiteSpace=wrap;html=1;" parent="1" vertex="1">
          <mxGeometry x="390" y="980" width="422.75" height="210" as="geometry" />
        </mxCell>
        <mxCell id="HEp67iWyr1RidV_tDCYu-402" style="edgeStyle=orthogonalEdgeStyle;rounded=0;orthogonalLoop=1;jettySize=auto;html=1;exitX=0.25;exitY=1;exitDx=0;exitDy=0;strokeColor=#00CC00;align=center;verticalAlign=middle;fontFamily=Helvetica;fontSize=11;fontColor=default;labelBackgroundColor=default;endArrow=classic;" parent="1" source="HEp67iWyr1RidV_tDCYu-399" edge="1">
          <mxGeometry relative="1" as="geometry">
            <mxPoint x="787" y="340" as="targetPoint" />
            <Array as="points">
              <mxPoint x="427" y="340" />
            </Array>
          </mxGeometry>
        </mxCell>
        <mxCell id="Ru3RgFExYkWAiuwz_G7w-68" style="edgeStyle=orthogonalEdgeStyle;rounded=0;orthogonalLoop=1;jettySize=auto;html=1;exitX=0.75;exitY=0;exitDx=0;exitDy=0;entryX=0.75;entryY=1;entryDx=0;entryDy=0;strokeColor=#00CC00;align=center;verticalAlign=middle;fontFamily=Helvetica;fontSize=11;fontColor=default;labelBackgroundColor=default;endArrow=classic;" parent="1" source="Tjo_xKG83BjHhB87LPym-3" target="Ru3RgFExYkWAiuwz_G7w-1" edge="1">
          <mxGeometry relative="1" as="geometry">
            <Array as="points">
              <mxPoint x="117" y="390" />
              <mxPoint x="137" y="390" />
              <mxPoint x="137" y="90" />
              <mxPoint x="117" y="90" />
            </Array>
          </mxGeometry>
        </mxCell>
        <mxCell id="Tjo_xKG83BjHhB87LPym-5" value="" style="endArrow=classic;html=1;rounded=0;strokeColor=#FF0000;endFill=1;" parent="1" edge="1">
          <mxGeometry width="50" height="50" relative="1" as="geometry">
            <mxPoint x="77" y="360" as="sourcePoint" />
            <mxPoint x="77" y="2950" as="targetPoint" />
          </mxGeometry>
        </mxCell>
        <mxCell id="Ru3RgFExYkWAiuwz_G7w-69" style="edgeStyle=orthogonalEdgeStyle;rounded=0;orthogonalLoop=1;jettySize=auto;html=1;exitX=0.75;exitY=0;exitDx=0;exitDy=0;entryX=0.75;entryY=1;entryDx=0;entryDy=0;strokeColor=#00CC00;align=center;verticalAlign=middle;fontFamily=Helvetica;fontSize=11;fontColor=default;labelBackgroundColor=default;endArrow=classic;" parent="1" source="Ru3RgFExYkWAiuwz_G7w-18" target="Ru3RgFExYkWAiuwz_G7w-2" edge="1">
          <mxGeometry relative="1" as="geometry">
            <Array as="points">
              <mxPoint x="117" y="950" />
              <mxPoint x="147" y="950" />
              <mxPoint x="147" y="150" />
              <mxPoint x="117" y="150" />
            </Array>
          </mxGeometry>
        </mxCell>
        <mxCell id="Ru3RgFExYkWAiuwz_G7w-81" style="edgeStyle=orthogonalEdgeStyle;rounded=0;orthogonalLoop=1;jettySize=auto;html=1;exitX=0.75;exitY=0;exitDx=0;exitDy=0;entryX=0.75;entryY=1;entryDx=0;entryDy=0;strokeColor=#00CC00;align=center;verticalAlign=middle;fontFamily=Helvetica;fontSize=11;fontColor=default;labelBackgroundColor=default;endArrow=classic;" parent="1" source="Ru3RgFExYkWAiuwz_G7w-33" target="Ru3RgFExYkWAiuwz_G7w-3" edge="1">
          <mxGeometry relative="1" as="geometry">
            <Array as="points">
              <mxPoint x="117" y="1510" />
              <mxPoint x="157" y="1510" />
              <mxPoint x="157" y="210" />
              <mxPoint x="117" y="210" />
            </Array>
          </mxGeometry>
        </mxCell>
        <mxCell id="Ru3RgFExYkWAiuwz_G7w-82" style="edgeStyle=orthogonalEdgeStyle;rounded=0;orthogonalLoop=1;jettySize=auto;html=1;exitX=0.75;exitY=0;exitDx=0;exitDy=0;entryX=0.75;entryY=1;entryDx=0;entryDy=0;strokeColor=#00CC00;align=center;verticalAlign=middle;fontFamily=Helvetica;fontSize=11;fontColor=default;labelBackgroundColor=default;endArrow=classic;" parent="1" source="Ru3RgFExYkWAiuwz_G7w-48" target="Ru3RgFExYkWAiuwz_G7w-4" edge="1">
          <mxGeometry relative="1" as="geometry">
            <Array as="points">
              <mxPoint x="117" y="2070" />
              <mxPoint x="167" y="2070" />
              <mxPoint x="167" y="270" />
              <mxPoint x="117" y="270" />
            </Array>
          </mxGeometry>
        </mxCell>
        <mxCell id="Ru3RgFExYkWAiuwz_G7w-90" style="edgeStyle=orthogonalEdgeStyle;rounded=0;orthogonalLoop=1;jettySize=auto;html=1;exitX=0.75;exitY=0;exitDx=0;exitDy=0;entryX=0.75;entryY=1;entryDx=0;entryDy=0;strokeColor=#00CC00;align=center;verticalAlign=middle;fontFamily=Helvetica;fontSize=11;fontColor=default;labelBackgroundColor=default;endArrow=classic;" parent="1" source="Ru3RgFExYkWAiuwz_G7w-91" target="Ru3RgFExYkWAiuwz_G7w-105" edge="1">
          <mxGeometry relative="1" as="geometry">
            <Array as="points">
              <mxPoint x="227" y="390" />
              <mxPoint x="247" y="390" />
              <mxPoint x="247" y="90" />
              <mxPoint x="227" y="90" />
            </Array>
          </mxGeometry>
        </mxCell>
        <mxCell id="Ru3RgFExYkWAiuwz_G7w-94" value="" style="endArrow=classic;html=1;rounded=0;strokeColor=#FF0000;endFill=1;" parent="1" edge="1">
          <mxGeometry width="50" height="50" relative="1" as="geometry">
            <mxPoint x="187" y="350" as="sourcePoint" />
            <mxPoint x="187" y="2950" as="targetPoint" />
          </mxGeometry>
        </mxCell>
        <mxCell id="Ru3RgFExYkWAiuwz_G7w-115" style="edgeStyle=orthogonalEdgeStyle;rounded=0;orthogonalLoop=1;jettySize=auto;html=1;exitX=0.75;exitY=0;exitDx=0;exitDy=0;entryX=0.75;entryY=1;entryDx=0;entryDy=0;strokeColor=#00CC00;align=center;verticalAlign=middle;fontFamily=Helvetica;fontSize=11;fontColor=default;labelBackgroundColor=default;endArrow=classic;" parent="1" source="Ru3RgFExYkWAiuwz_G7w-116" target="Ru3RgFExYkWAiuwz_G7w-106" edge="1">
          <mxGeometry relative="1" as="geometry">
            <Array as="points">
              <mxPoint x="227" y="950" />
              <mxPoint x="257" y="950" />
              <mxPoint x="257" y="150" />
              <mxPoint x="227" y="150" />
            </Array>
          </mxGeometry>
        </mxCell>
        <mxCell id="Ru3RgFExYkWAiuwz_G7w-134" style="edgeStyle=orthogonalEdgeStyle;rounded=0;orthogonalLoop=1;jettySize=auto;html=1;exitX=0.75;exitY=0;exitDx=0;exitDy=0;entryX=0.75;entryY=1;entryDx=0;entryDy=0;strokeColor=#00CC00;align=center;verticalAlign=middle;fontFamily=Helvetica;fontSize=11;fontColor=default;labelBackgroundColor=default;endArrow=classic;" parent="1" source="Ru3RgFExYkWAiuwz_G7w-135" target="Ru3RgFExYkWAiuwz_G7w-107" edge="1">
          <mxGeometry relative="1" as="geometry">
            <Array as="points">
              <mxPoint x="227" y="1510" />
              <mxPoint x="267" y="1510" />
              <mxPoint x="267" y="210" />
              <mxPoint x="227" y="210" />
            </Array>
          </mxGeometry>
        </mxCell>
        <mxCell id="Ru3RgFExYkWAiuwz_G7w-153" style="edgeStyle=orthogonalEdgeStyle;rounded=0;orthogonalLoop=1;jettySize=auto;html=1;exitX=0.75;exitY=0;exitDx=0;exitDy=0;entryX=0.75;entryY=1;entryDx=0;entryDy=0;strokeColor=#00CC00;align=center;verticalAlign=middle;fontFamily=Helvetica;fontSize=11;fontColor=default;labelBackgroundColor=default;endArrow=classic;" parent="1" source="Ru3RgFExYkWAiuwz_G7w-154" target="Ru3RgFExYkWAiuwz_G7w-108" edge="1">
          <mxGeometry relative="1" as="geometry">
            <Array as="points">
              <mxPoint x="227" y="2070" />
              <mxPoint x="277" y="2070" />
              <mxPoint x="277" y="270" />
              <mxPoint x="227" y="270" />
            </Array>
          </mxGeometry>
        </mxCell>
        <mxCell id="Ru3RgFExYkWAiuwz_G7w-179" value="" style="group" parent="1" vertex="1" connectable="0">
          <mxGeometry x="57" y="30" width="240" height="300" as="geometry" />
        </mxCell>
        <mxCell id="Ru3RgFExYkWAiuwz_G7w-11" value="" style="rounded=1;whiteSpace=wrap;html=1;fillColor=none;glass=0;shadow=0;arcSize=10;strokeColor=default;align=center;verticalAlign=middle;fontFamily=Helvetica;fontSize=12;fontColor=default;connectable=0;" parent="Ru3RgFExYkWAiuwz_G7w-179" vertex="1">
          <mxGeometry width="240" height="300" as="geometry" />
        </mxCell>
        <mxCell id="Ru3RgFExYkWAiuwz_G7w-1" value="" style="whiteSpace=wrap;html=1;aspect=fixed;strokeColor=#7F00FF;" parent="Ru3RgFExYkWAiuwz_G7w-179" vertex="1">
          <mxGeometry x="30" y="10" width="40" height="40" as="geometry" />
        </mxCell>
        <mxCell id="Ru3RgFExYkWAiuwz_G7w-2" value="" style="whiteSpace=wrap;html=1;aspect=fixed;strokeColor=#7F00FF;" parent="Ru3RgFExYkWAiuwz_G7w-179" vertex="1">
          <mxGeometry x="30" y="70" width="40" height="40" as="geometry" />
        </mxCell>
        <mxCell id="Ru3RgFExYkWAiuwz_G7w-3" value="" style="whiteSpace=wrap;html=1;aspect=fixed;strokeColor=#7F00FF;" parent="Ru3RgFExYkWAiuwz_G7w-179" vertex="1">
          <mxGeometry x="30" y="130" width="40" height="40" as="geometry" />
        </mxCell>
        <mxCell id="Ru3RgFExYkWAiuwz_G7w-4" value="" style="whiteSpace=wrap;html=1;aspect=fixed;strokeColor=#7F00FF;" parent="Ru3RgFExYkWAiuwz_G7w-179" vertex="1">
          <mxGeometry x="30" y="190" width="40" height="40" as="geometry" />
        </mxCell>
        <mxCell id="Ru3RgFExYkWAiuwz_G7w-5" value="" style="whiteSpace=wrap;html=1;aspect=fixed;strokeColor=#7F00FF;" parent="Ru3RgFExYkWAiuwz_G7w-179" vertex="1">
          <mxGeometry x="30" y="250" width="40" height="40" as="geometry" />
        </mxCell>
        <mxCell id="Ru3RgFExYkWAiuwz_G7w-105" value="" style="whiteSpace=wrap;html=1;aspect=fixed;strokeColor=#7F00FF;" parent="Ru3RgFExYkWAiuwz_G7w-179" vertex="1">
          <mxGeometry x="140" y="10" width="40" height="40" as="geometry" />
        </mxCell>
        <mxCell id="Ru3RgFExYkWAiuwz_G7w-106" value="" style="whiteSpace=wrap;html=1;aspect=fixed;strokeColor=#7F00FF;" parent="Ru3RgFExYkWAiuwz_G7w-179" vertex="1">
          <mxGeometry x="140" y="70" width="40" height="40" as="geometry" />
        </mxCell>
        <mxCell id="Ru3RgFExYkWAiuwz_G7w-107" value="" style="whiteSpace=wrap;html=1;aspect=fixed;strokeColor=#7F00FF;" parent="Ru3RgFExYkWAiuwz_G7w-179" vertex="1">
          <mxGeometry x="140" y="130" width="40" height="40" as="geometry" />
        </mxCell>
        <mxCell id="Ru3RgFExYkWAiuwz_G7w-108" value="" style="whiteSpace=wrap;html=1;aspect=fixed;strokeColor=#7F00FF;" parent="Ru3RgFExYkWAiuwz_G7w-179" vertex="1">
          <mxGeometry x="140" y="190" width="40" height="40" as="geometry" />
        </mxCell>
        <mxCell id="Ru3RgFExYkWAiuwz_G7w-109" value="" style="whiteSpace=wrap;html=1;aspect=fixed;strokeColor=#7F00FF;" parent="Ru3RgFExYkWAiuwz_G7w-179" vertex="1">
          <mxGeometry x="140" y="250" width="40" height="40" as="geometry" />
        </mxCell>
        <mxCell id="Ru3RgFExYkWAiuwz_G7w-180" value="" style="group" parent="1" vertex="1" connectable="0">
          <mxGeometry x="397" y="100" width="80" height="200" as="geometry" />
        </mxCell>
        <mxCell id="HEp67iWyr1RidV_tDCYu-380" value="" style="rounded=1;whiteSpace=wrap;html=1;fillColor=none;glass=0;shadow=0;arcSize=10;strokeColor=default;align=center;verticalAlign=middle;fontFamily=Helvetica;fontSize=12;fontColor=default;connectable=0;" parent="Ru3RgFExYkWAiuwz_G7w-180" vertex="1">
          <mxGeometry width="80" height="200" as="geometry" />
        </mxCell>
        <mxCell id="HEp67iWyr1RidV_tDCYu-502" style="edgeStyle=orthogonalEdgeStyle;rounded=0;orthogonalLoop=1;jettySize=auto;html=1;exitX=0.25;exitY=1;exitDx=0;exitDy=0;entryX=0.25;entryY=0;entryDx=0;entryDy=0;strokeColor=#00CC00;align=center;verticalAlign=middle;fontFamily=Helvetica;fontSize=11;fontColor=default;labelBackgroundColor=default;endArrow=classic;" parent="Ru3RgFExYkWAiuwz_G7w-180" source="HEp67iWyr1RidV_tDCYu-98" target="HEp67iWyr1RidV_tDCYu-399" edge="1">
          <mxGeometry relative="1" as="geometry" />
        </mxCell>
        <mxCell id="HEp67iWyr1RidV_tDCYu-98" value="i+0&lt;br&gt;=&amp;gt;i" style="rounded=0;whiteSpace=wrap;html=1;strokeColor=#00FFFF;" parent="Ru3RgFExYkWAiuwz_G7w-180" vertex="1">
          <mxGeometry x="20" y="60" width="40" height="50" as="geometry" />
        </mxCell>
        <mxCell id="HEp67iWyr1RidV_tDCYu-503" style="edgeStyle=orthogonalEdgeStyle;rounded=0;orthogonalLoop=1;jettySize=auto;html=1;exitX=0.25;exitY=1;exitDx=0;exitDy=0;strokeColor=#00CC00;align=center;verticalAlign=middle;fontFamily=Helvetica;fontSize=11;fontColor=default;labelBackgroundColor=default;endArrow=classic;" parent="Ru3RgFExYkWAiuwz_G7w-180" source="HEp67iWyr1RidV_tDCYu-372" edge="1">
          <mxGeometry relative="1" as="geometry">
            <mxPoint x="30.111111111111086" y="60" as="targetPoint" />
          </mxGeometry>
        </mxCell>
        <mxCell id="HEp67iWyr1RidV_tDCYu-372" value="i=1" style="rounded=0;whiteSpace=wrap;html=1;strokeColor=#FF00FF;align=center;verticalAlign=middle;fontFamily=Helvetica;fontSize=12;fontColor=default;fillColor=default;" parent="Ru3RgFExYkWAiuwz_G7w-180" vertex="1">
          <mxGeometry x="20" y="20" width="40" height="20" as="geometry" />
        </mxCell>
        <mxCell id="HEp67iWyr1RidV_tDCYu-399" value="i/2&lt;div&gt;=&amp;gt;i&lt;/div&gt;" style="rounded=0;whiteSpace=wrap;html=1;strokeColor=#00FFFF;" parent="Ru3RgFExYkWAiuwz_G7w-180" vertex="1">
          <mxGeometry x="20" y="130" width="40" height="50" as="geometry" />
        </mxCell>
        <mxCell id="HEp67iWyr1RidV_tDCYu-504" style="edgeStyle=orthogonalEdgeStyle;rounded=0;orthogonalLoop=1;jettySize=auto;html=1;exitX=0.75;exitY=1;exitDx=0;exitDy=0;entryX=0.75;entryY=0;entryDx=0;entryDy=0;strokeColor=#FF0000;" parent="Ru3RgFExYkWAiuwz_G7w-180" source="HEp67iWyr1RidV_tDCYu-98" target="HEp67iWyr1RidV_tDCYu-98" edge="1">
          <mxGeometry relative="1" as="geometry">
            <Array as="points">
              <mxPoint x="50" y="120" />
              <mxPoint x="70" y="120" />
              <mxPoint x="70" y="50" />
              <mxPoint x="50" y="50" />
            </Array>
          </mxGeometry>
        </mxCell>
        <mxCell id="Ru3RgFExYkWAiuwz_G7w-193" value="" style="group" parent="1" vertex="1" connectable="0">
          <mxGeometry x="387" y="325" width="420" height="385" as="geometry" />
        </mxCell>
        <mxCell id="HEp67iWyr1RidV_tDCYu-100" style="edgeStyle=orthogonalEdgeStyle;rounded=0;orthogonalLoop=1;jettySize=auto;html=1;exitX=0.75;exitY=1;exitDx=0;exitDy=0;entryX=0.75;entryY=1;entryDx=0;entryDy=0;endArrow=none;endFill=0;strokeColor=#00CC00;" parent="Ru3RgFExYkWAiuwz_G7w-193" source="HEp67iWyr1RidV_tDCYu-89" target="HEp67iWyr1RidV_tDCYu-91" edge="1">
          <mxGeometry relative="1" as="geometry">
            <mxPoint x="70" y="105" as="sourcePoint" />
            <mxPoint x="70" y="215" as="targetPoint" />
            <Array as="points">
              <mxPoint x="60" y="115" />
              <mxPoint x="80" y="115" />
              <mxPoint x="80" y="235" />
              <mxPoint x="60" y="235" />
            </Array>
          </mxGeometry>
        </mxCell>
        <mxCell id="HEp67iWyr1RidV_tDCYu-368" style="edgeStyle=orthogonalEdgeStyle;rounded=0;orthogonalLoop=1;jettySize=auto;html=1;exitX=0.75;exitY=1;exitDx=0;exitDy=0;strokeColor=#00CC00;endArrow=none;endFill=0;" parent="Ru3RgFExYkWAiuwz_G7w-193" source="HEp67iWyr1RidV_tDCYu-89" edge="1">
          <mxGeometry relative="1" as="geometry">
            <mxPoint x="80" y="15" as="targetPoint" />
            <Array as="points">
              <mxPoint x="60" y="115" />
              <mxPoint x="80" y="115" />
            </Array>
          </mxGeometry>
        </mxCell>
        <mxCell id="HEp67iWyr1RidV_tDCYu-498" style="edgeStyle=orthogonalEdgeStyle;rounded=0;orthogonalLoop=1;jettySize=auto;html=1;exitX=0.25;exitY=0;exitDx=0;exitDy=0;entryX=0.25;entryY=0;entryDx=0;entryDy=0;strokeColor=#FF0000;align=center;verticalAlign=middle;fontFamily=Helvetica;fontSize=11;fontColor=default;labelBackgroundColor=default;endArrow=none;endFill=0;" parent="Ru3RgFExYkWAiuwz_G7w-193" source="HEp67iWyr1RidV_tDCYu-89" target="HEp67iWyr1RidV_tDCYu-91" edge="1">
          <mxGeometry relative="1" as="geometry">
            <Array as="points">
              <mxPoint x="40" y="45" />
              <mxPoint x="20" y="45" />
              <mxPoint x="20" y="165" />
              <mxPoint x="40" y="165" />
            </Array>
          </mxGeometry>
        </mxCell>
        <mxCell id="HEp67iWyr1RidV_tDCYu-89" value="i==1?&lt;br&gt;ALL" style="rounded=0;whiteSpace=wrap;html=1;strokeColor=#0000FF;" parent="Ru3RgFExYkWAiuwz_G7w-193" vertex="1">
          <mxGeometry x="30" y="55" width="40" height="50" as="geometry" />
        </mxCell>
        <mxCell id="HEp67iWyr1RidV_tDCYu-101" style="edgeStyle=orthogonalEdgeStyle;rounded=0;orthogonalLoop=1;jettySize=auto;html=1;exitX=0.75;exitY=1;exitDx=0;exitDy=0;endArrow=none;endFill=0;strokeColor=#00CC00;" parent="Ru3RgFExYkWAiuwz_G7w-193" source="HEp67iWyr1RidV_tDCYu-91" edge="1">
          <mxGeometry relative="1" as="geometry">
            <mxPoint x="80" y="295" as="targetPoint" />
            <Array as="points">
              <mxPoint x="60" y="235" />
              <mxPoint x="80" y="235" />
            </Array>
          </mxGeometry>
        </mxCell>
        <mxCell id="HEp67iWyr1RidV_tDCYu-91" value="i==2?&lt;br&gt;ALL" style="rounded=0;whiteSpace=wrap;html=1;strokeColor=#0000FF;align=center;verticalAlign=middle;fontFamily=Helvetica;fontSize=12;fontColor=default;fillColor=default;" parent="Ru3RgFExYkWAiuwz_G7w-193" vertex="1">
          <mxGeometry x="30" y="175" width="40" height="50" as="geometry" />
        </mxCell>
        <mxCell id="HEp67iWyr1RidV_tDCYu-97" style="edgeStyle=orthogonalEdgeStyle;rounded=0;orthogonalLoop=1;jettySize=auto;html=1;exitX=0.25;exitY=0;exitDx=0;exitDy=0;entryX=0.25;entryY=1;entryDx=0;entryDy=0;strokeColor=#FF0000;align=center;verticalAlign=middle;fontFamily=Helvetica;fontSize=11;fontColor=default;labelBackgroundColor=default;endArrow=classic;" parent="Ru3RgFExYkWAiuwz_G7w-193" source="HEp67iWyr1RidV_tDCYu-93" target="HEp67iWyr1RidV_tDCYu-89" edge="1">
          <mxGeometry relative="1" as="geometry" />
        </mxCell>
        <mxCell id="HEp67iWyr1RidV_tDCYu-93" value="A-Y" style="rounded=0;whiteSpace=wrap;html=1;strokeColor=#FF00FF;align=center;verticalAlign=middle;fontFamily=Helvetica;fontSize=12;fontColor=default;fillColor=default;" parent="Ru3RgFExYkWAiuwz_G7w-193" vertex="1">
          <mxGeometry x="30" y="125" width="40" height="20" as="geometry" />
        </mxCell>
        <mxCell id="HEp67iWyr1RidV_tDCYu-96" style="edgeStyle=orthogonalEdgeStyle;rounded=0;orthogonalLoop=1;jettySize=auto;html=1;exitX=0.25;exitY=0;exitDx=0;exitDy=0;entryX=0.25;entryY=1;entryDx=0;entryDy=0;strokeColor=#FF0000;align=center;verticalAlign=middle;fontFamily=Helvetica;fontSize=11;fontColor=default;labelBackgroundColor=default;endArrow=classic;" parent="Ru3RgFExYkWAiuwz_G7w-193" source="HEp67iWyr1RidV_tDCYu-95" target="HEp67iWyr1RidV_tDCYu-91" edge="1">
          <mxGeometry relative="1" as="geometry" />
        </mxCell>
        <mxCell id="HEp67iWyr1RidV_tDCYu-95" value="A-Y" style="rounded=0;whiteSpace=wrap;html=1;strokeColor=#FF00FF;align=center;verticalAlign=middle;fontFamily=Helvetica;fontSize=12;fontColor=default;fillColor=default;" parent="Ru3RgFExYkWAiuwz_G7w-193" vertex="1">
          <mxGeometry x="30" y="245" width="40" height="20" as="geometry" />
        </mxCell>
        <mxCell id="HEp67iWyr1RidV_tDCYu-104" value="" style="endArrow=classic;html=1;rounded=0;strokeColor=#FF0000;endFill=1;" parent="Ru3RgFExYkWAiuwz_G7w-193" edge="1">
          <mxGeometry width="50" height="50" relative="1" as="geometry">
            <mxPoint x="20" y="360" as="sourcePoint" />
            <mxPoint x="20" y="35" as="targetPoint" />
          </mxGeometry>
        </mxCell>
        <mxCell id="HEp67iWyr1RidV_tDCYu-352" style="edgeStyle=orthogonalEdgeStyle;rounded=0;orthogonalLoop=1;jettySize=auto;html=1;exitX=0.75;exitY=1;exitDx=0;exitDy=0;entryX=0.75;entryY=1;entryDx=0;entryDy=0;endArrow=none;endFill=0;strokeColor=#00CC00;" parent="Ru3RgFExYkWAiuwz_G7w-193" source="HEp67iWyr1RidV_tDCYu-354" target="HEp67iWyr1RidV_tDCYu-357" edge="1">
          <mxGeometry relative="1" as="geometry">
            <mxPoint x="150" y="105" as="sourcePoint" />
            <mxPoint x="150" y="215" as="targetPoint" />
            <Array as="points">
              <mxPoint x="140" y="115" />
              <mxPoint x="160" y="115" />
              <mxPoint x="160" y="235" />
              <mxPoint x="140" y="235" />
            </Array>
          </mxGeometry>
        </mxCell>
        <mxCell id="HEp67iWyr1RidV_tDCYu-371" style="edgeStyle=orthogonalEdgeStyle;rounded=0;orthogonalLoop=1;jettySize=auto;html=1;exitX=0.75;exitY=1;exitDx=0;exitDy=0;strokeColor=#00CC00;align=center;verticalAlign=middle;fontFamily=Helvetica;fontSize=11;fontColor=default;labelBackgroundColor=default;endArrow=none;endFill=0;" parent="Ru3RgFExYkWAiuwz_G7w-193" source="HEp67iWyr1RidV_tDCYu-354" edge="1">
          <mxGeometry relative="1" as="geometry">
            <mxPoint x="160" y="15" as="targetPoint" />
            <Array as="points">
              <mxPoint x="140" y="115" />
              <mxPoint x="160" y="115" />
            </Array>
          </mxGeometry>
        </mxCell>
        <mxCell id="HEp67iWyr1RidV_tDCYu-499" style="edgeStyle=orthogonalEdgeStyle;rounded=0;orthogonalLoop=1;jettySize=auto;html=1;exitX=0.25;exitY=0;exitDx=0;exitDy=0;entryX=0.25;entryY=0;entryDx=0;entryDy=0;strokeColor=#FF0000;align=center;verticalAlign=middle;fontFamily=Helvetica;fontSize=11;fontColor=default;labelBackgroundColor=default;endArrow=none;endFill=0;" parent="Ru3RgFExYkWAiuwz_G7w-193" source="HEp67iWyr1RidV_tDCYu-354" target="HEp67iWyr1RidV_tDCYu-357" edge="1">
          <mxGeometry relative="1" as="geometry">
            <Array as="points">
              <mxPoint x="120" y="45" />
              <mxPoint x="100" y="45" />
              <mxPoint x="100" y="165" />
              <mxPoint x="120" y="165" />
            </Array>
          </mxGeometry>
        </mxCell>
        <mxCell id="HEp67iWyr1RidV_tDCYu-354" value="i==1?&lt;br&gt;ALL" style="rounded=0;whiteSpace=wrap;html=1;strokeColor=#0000FF;" parent="Ru3RgFExYkWAiuwz_G7w-193" vertex="1">
          <mxGeometry x="110" y="55" width="40" height="50" as="geometry" />
        </mxCell>
        <mxCell id="HEp67iWyr1RidV_tDCYu-355" style="edgeStyle=orthogonalEdgeStyle;rounded=0;orthogonalLoop=1;jettySize=auto;html=1;exitX=0.75;exitY=1;exitDx=0;exitDy=0;endArrow=none;endFill=0;strokeColor=#00CC00;" parent="Ru3RgFExYkWAiuwz_G7w-193" source="HEp67iWyr1RidV_tDCYu-357" edge="1">
          <mxGeometry relative="1" as="geometry">
            <mxPoint x="160" y="295" as="targetPoint" />
            <Array as="points">
              <mxPoint x="140" y="235" />
              <mxPoint x="160" y="235" />
            </Array>
          </mxGeometry>
        </mxCell>
        <mxCell id="HEp67iWyr1RidV_tDCYu-357" value="i==2?&lt;br&gt;ALL" style="rounded=0;whiteSpace=wrap;html=1;strokeColor=#0000FF;align=center;verticalAlign=middle;fontFamily=Helvetica;fontSize=12;fontColor=default;fillColor=default;" parent="Ru3RgFExYkWAiuwz_G7w-193" vertex="1">
          <mxGeometry x="110" y="175" width="40" height="50" as="geometry" />
        </mxCell>
        <mxCell id="HEp67iWyr1RidV_tDCYu-358" style="edgeStyle=orthogonalEdgeStyle;rounded=0;orthogonalLoop=1;jettySize=auto;html=1;exitX=0.25;exitY=0;exitDx=0;exitDy=0;entryX=0.25;entryY=1;entryDx=0;entryDy=0;strokeColor=#FF0000;align=center;verticalAlign=middle;fontFamily=Helvetica;fontSize=11;fontColor=default;labelBackgroundColor=default;endArrow=classic;" parent="Ru3RgFExYkWAiuwz_G7w-193" source="HEp67iWyr1RidV_tDCYu-359" target="HEp67iWyr1RidV_tDCYu-354" edge="1">
          <mxGeometry relative="1" as="geometry" />
        </mxCell>
        <mxCell id="HEp67iWyr1RidV_tDCYu-359" value="A-Y" style="rounded=0;whiteSpace=wrap;html=1;strokeColor=#FF00FF;align=center;verticalAlign=middle;fontFamily=Helvetica;fontSize=12;fontColor=default;fillColor=default;" parent="Ru3RgFExYkWAiuwz_G7w-193" vertex="1">
          <mxGeometry x="110" y="125" width="40" height="20" as="geometry" />
        </mxCell>
        <mxCell id="HEp67iWyr1RidV_tDCYu-360" style="edgeStyle=orthogonalEdgeStyle;rounded=0;orthogonalLoop=1;jettySize=auto;html=1;exitX=0.25;exitY=0;exitDx=0;exitDy=0;entryX=0.25;entryY=1;entryDx=0;entryDy=0;strokeColor=#FF0000;align=center;verticalAlign=middle;fontFamily=Helvetica;fontSize=11;fontColor=default;labelBackgroundColor=default;endArrow=classic;" parent="Ru3RgFExYkWAiuwz_G7w-193" source="HEp67iWyr1RidV_tDCYu-361" target="HEp67iWyr1RidV_tDCYu-357" edge="1">
          <mxGeometry relative="1" as="geometry" />
        </mxCell>
        <mxCell id="HEp67iWyr1RidV_tDCYu-361" value="A-Y" style="rounded=0;whiteSpace=wrap;html=1;strokeColor=#FF00FF;align=center;verticalAlign=middle;fontFamily=Helvetica;fontSize=12;fontColor=default;fillColor=default;" parent="Ru3RgFExYkWAiuwz_G7w-193" vertex="1">
          <mxGeometry x="110" y="245" width="40" height="20" as="geometry" />
        </mxCell>
        <mxCell id="HEp67iWyr1RidV_tDCYu-365" value="" style="endArrow=classic;html=1;rounded=0;strokeColor=#FF0000;endFill=1;" parent="Ru3RgFExYkWAiuwz_G7w-193" edge="1">
          <mxGeometry width="50" height="50" relative="1" as="geometry">
            <mxPoint x="100" y="360" as="sourcePoint" />
            <mxPoint x="100" y="25" as="targetPoint" />
          </mxGeometry>
        </mxCell>
        <mxCell id="HEp67iWyr1RidV_tDCYu-447" style="edgeStyle=orthogonalEdgeStyle;rounded=0;orthogonalLoop=1;jettySize=auto;html=1;exitX=0.75;exitY=1;exitDx=0;exitDy=0;entryX=0.75;entryY=1;entryDx=0;entryDy=0;endArrow=none;endFill=0;strokeColor=#00CC00;" parent="Ru3RgFExYkWAiuwz_G7w-193" source="HEp67iWyr1RidV_tDCYu-449" target="HEp67iWyr1RidV_tDCYu-452" edge="1">
          <mxGeometry relative="1" as="geometry">
            <mxPoint x="270" y="105" as="sourcePoint" />
            <mxPoint x="270" y="215" as="targetPoint" />
            <Array as="points">
              <mxPoint x="260" y="115" />
              <mxPoint x="280" y="115" />
              <mxPoint x="280" y="235" />
              <mxPoint x="260" y="235" />
            </Array>
          </mxGeometry>
        </mxCell>
        <mxCell id="HEp67iWyr1RidV_tDCYu-470" style="edgeStyle=orthogonalEdgeStyle;rounded=0;orthogonalLoop=1;jettySize=auto;html=1;exitX=0.75;exitY=1;exitDx=0;exitDy=0;strokeColor=#00CC00;align=center;verticalAlign=middle;fontFamily=Helvetica;fontSize=11;fontColor=default;labelBackgroundColor=default;endArrow=none;endFill=0;" parent="Ru3RgFExYkWAiuwz_G7w-193" source="HEp67iWyr1RidV_tDCYu-449" edge="1">
          <mxGeometry relative="1" as="geometry">
            <mxPoint x="280" y="15" as="targetPoint" />
            <Array as="points">
              <mxPoint x="260" y="115" />
              <mxPoint x="280" y="115" />
            </Array>
          </mxGeometry>
        </mxCell>
        <mxCell id="HEp67iWyr1RidV_tDCYu-500" style="edgeStyle=orthogonalEdgeStyle;rounded=0;orthogonalLoop=1;jettySize=auto;html=1;exitX=0.25;exitY=0;exitDx=0;exitDy=0;entryX=0.25;entryY=0;entryDx=0;entryDy=0;strokeColor=#FF0000;align=center;verticalAlign=middle;fontFamily=Helvetica;fontSize=11;fontColor=default;labelBackgroundColor=default;endArrow=none;endFill=0;" parent="Ru3RgFExYkWAiuwz_G7w-193" source="HEp67iWyr1RidV_tDCYu-449" target="HEp67iWyr1RidV_tDCYu-452" edge="1">
          <mxGeometry relative="1" as="geometry">
            <Array as="points">
              <mxPoint x="240" y="45" />
              <mxPoint x="220" y="45" />
              <mxPoint x="220" y="165" />
              <mxPoint x="240" y="165" />
            </Array>
          </mxGeometry>
        </mxCell>
        <mxCell id="HEp67iWyr1RidV_tDCYu-449" value="i==501?&lt;br&gt;ALL" style="rounded=0;whiteSpace=wrap;html=1;strokeColor=#0000FF;" parent="Ru3RgFExYkWAiuwz_G7w-193" vertex="1">
          <mxGeometry x="230" y="55" width="40" height="50" as="geometry" />
        </mxCell>
        <mxCell id="HEp67iWyr1RidV_tDCYu-450" style="edgeStyle=orthogonalEdgeStyle;rounded=0;orthogonalLoop=1;jettySize=auto;html=1;exitX=0.75;exitY=1;exitDx=0;exitDy=0;endArrow=none;endFill=0;strokeColor=#00CC00;" parent="Ru3RgFExYkWAiuwz_G7w-193" source="HEp67iWyr1RidV_tDCYu-452" edge="1">
          <mxGeometry relative="1" as="geometry">
            <mxPoint x="280" y="295" as="targetPoint" />
            <Array as="points">
              <mxPoint x="260" y="235" />
              <mxPoint x="280" y="235" />
            </Array>
          </mxGeometry>
        </mxCell>
        <mxCell id="HEp67iWyr1RidV_tDCYu-452" value="i==502?&lt;br&gt;ALL" style="rounded=0;whiteSpace=wrap;html=1;strokeColor=#0000FF;align=center;verticalAlign=middle;fontFamily=Helvetica;fontSize=12;fontColor=default;fillColor=default;" parent="Ru3RgFExYkWAiuwz_G7w-193" vertex="1">
          <mxGeometry x="230" y="175" width="40" height="50" as="geometry" />
        </mxCell>
        <mxCell id="HEp67iWyr1RidV_tDCYu-453" style="edgeStyle=orthogonalEdgeStyle;rounded=0;orthogonalLoop=1;jettySize=auto;html=1;exitX=0.25;exitY=0;exitDx=0;exitDy=0;entryX=0.25;entryY=1;entryDx=0;entryDy=0;strokeColor=#FF0000;align=center;verticalAlign=middle;fontFamily=Helvetica;fontSize=11;fontColor=default;labelBackgroundColor=default;endArrow=classic;" parent="Ru3RgFExYkWAiuwz_G7w-193" source="HEp67iWyr1RidV_tDCYu-454" target="HEp67iWyr1RidV_tDCYu-449" edge="1">
          <mxGeometry relative="1" as="geometry" />
        </mxCell>
        <mxCell id="HEp67iWyr1RidV_tDCYu-454" value="A-Y" style="rounded=0;whiteSpace=wrap;html=1;strokeColor=#FF00FF;align=center;verticalAlign=middle;fontFamily=Helvetica;fontSize=12;fontColor=default;fillColor=default;" parent="Ru3RgFExYkWAiuwz_G7w-193" vertex="1">
          <mxGeometry x="230" y="125" width="40" height="20" as="geometry" />
        </mxCell>
        <mxCell id="HEp67iWyr1RidV_tDCYu-455" style="edgeStyle=orthogonalEdgeStyle;rounded=0;orthogonalLoop=1;jettySize=auto;html=1;exitX=0.25;exitY=0;exitDx=0;exitDy=0;entryX=0.25;entryY=1;entryDx=0;entryDy=0;strokeColor=#FF0000;align=center;verticalAlign=middle;fontFamily=Helvetica;fontSize=11;fontColor=default;labelBackgroundColor=default;endArrow=classic;" parent="Ru3RgFExYkWAiuwz_G7w-193" source="HEp67iWyr1RidV_tDCYu-456" target="HEp67iWyr1RidV_tDCYu-452" edge="1">
          <mxGeometry relative="1" as="geometry" />
        </mxCell>
        <mxCell id="HEp67iWyr1RidV_tDCYu-456" value="A-Y" style="rounded=0;whiteSpace=wrap;html=1;strokeColor=#FF00FF;align=center;verticalAlign=middle;fontFamily=Helvetica;fontSize=12;fontColor=default;fillColor=default;" parent="Ru3RgFExYkWAiuwz_G7w-193" vertex="1">
          <mxGeometry x="230" y="245" width="40" height="20" as="geometry" />
        </mxCell>
        <mxCell id="HEp67iWyr1RidV_tDCYu-457" value="" style="endArrow=classic;html=1;rounded=0;strokeColor=#FF0000;endFill=1;" parent="Ru3RgFExYkWAiuwz_G7w-193" edge="1">
          <mxGeometry width="50" height="50" relative="1" as="geometry">
            <mxPoint x="220" y="360" as="sourcePoint" />
            <mxPoint x="220" y="35" as="targetPoint" />
          </mxGeometry>
        </mxCell>
        <mxCell id="HEp67iWyr1RidV_tDCYu-458" style="edgeStyle=orthogonalEdgeStyle;rounded=0;orthogonalLoop=1;jettySize=auto;html=1;exitX=0.75;exitY=1;exitDx=0;exitDy=0;entryX=0.75;entryY=1;entryDx=0;entryDy=0;endArrow=none;endFill=0;strokeColor=#00CC00;" parent="Ru3RgFExYkWAiuwz_G7w-193" source="HEp67iWyr1RidV_tDCYu-460" target="HEp67iWyr1RidV_tDCYu-463" edge="1">
          <mxGeometry relative="1" as="geometry">
            <mxPoint x="350" y="105" as="sourcePoint" />
            <mxPoint x="350" y="215" as="targetPoint" />
            <Array as="points">
              <mxPoint x="340" y="115" />
              <mxPoint x="360" y="115" />
              <mxPoint x="360" y="235" />
              <mxPoint x="340" y="235" />
            </Array>
          </mxGeometry>
        </mxCell>
        <mxCell id="HEp67iWyr1RidV_tDCYu-469" style="edgeStyle=orthogonalEdgeStyle;rounded=0;orthogonalLoop=1;jettySize=auto;html=1;exitX=0.75;exitY=1;exitDx=0;exitDy=0;strokeColor=#00CC00;align=center;verticalAlign=middle;fontFamily=Helvetica;fontSize=11;fontColor=default;labelBackgroundColor=default;endArrow=none;endFill=0;" parent="Ru3RgFExYkWAiuwz_G7w-193" source="HEp67iWyr1RidV_tDCYu-460" edge="1">
          <mxGeometry relative="1" as="geometry">
            <mxPoint x="360" y="15" as="targetPoint" />
            <Array as="points">
              <mxPoint x="340" y="115" />
              <mxPoint x="360" y="115" />
              <mxPoint x="360" y="15" />
            </Array>
          </mxGeometry>
        </mxCell>
        <mxCell id="HEp67iWyr1RidV_tDCYu-501" style="edgeStyle=orthogonalEdgeStyle;rounded=0;orthogonalLoop=1;jettySize=auto;html=1;exitX=0.25;exitY=0;exitDx=0;exitDy=0;entryX=0.25;entryY=0;entryDx=0;entryDy=0;strokeColor=#FF0000;align=center;verticalAlign=middle;fontFamily=Helvetica;fontSize=11;fontColor=default;labelBackgroundColor=default;endArrow=none;endFill=0;" parent="Ru3RgFExYkWAiuwz_G7w-193" source="HEp67iWyr1RidV_tDCYu-460" target="HEp67iWyr1RidV_tDCYu-463" edge="1">
          <mxGeometry relative="1" as="geometry">
            <Array as="points">
              <mxPoint x="320" y="45" />
              <mxPoint x="300" y="45" />
              <mxPoint x="300" y="165" />
              <mxPoint x="320" y="165" />
            </Array>
          </mxGeometry>
        </mxCell>
        <mxCell id="HEp67iWyr1RidV_tDCYu-460" value="i==501?&lt;br&gt;ALL" style="rounded=0;whiteSpace=wrap;html=1;strokeColor=#0000FF;" parent="Ru3RgFExYkWAiuwz_G7w-193" vertex="1">
          <mxGeometry x="310" y="55" width="40" height="50" as="geometry" />
        </mxCell>
        <mxCell id="HEp67iWyr1RidV_tDCYu-461" style="edgeStyle=orthogonalEdgeStyle;rounded=0;orthogonalLoop=1;jettySize=auto;html=1;exitX=0.75;exitY=1;exitDx=0;exitDy=0;endArrow=none;endFill=0;strokeColor=#00CC00;" parent="Ru3RgFExYkWAiuwz_G7w-193" source="HEp67iWyr1RidV_tDCYu-463" edge="1">
          <mxGeometry relative="1" as="geometry">
            <mxPoint x="360" y="295" as="targetPoint" />
            <Array as="points">
              <mxPoint x="340" y="235" />
              <mxPoint x="360" y="235" />
            </Array>
          </mxGeometry>
        </mxCell>
        <mxCell id="HEp67iWyr1RidV_tDCYu-463" value="i==502?&lt;br&gt;ALL" style="rounded=0;whiteSpace=wrap;html=1;strokeColor=#0000FF;align=center;verticalAlign=middle;fontFamily=Helvetica;fontSize=12;fontColor=default;fillColor=default;" parent="Ru3RgFExYkWAiuwz_G7w-193" vertex="1">
          <mxGeometry x="310" y="175" width="40" height="50" as="geometry" />
        </mxCell>
        <mxCell id="HEp67iWyr1RidV_tDCYu-464" style="edgeStyle=orthogonalEdgeStyle;rounded=0;orthogonalLoop=1;jettySize=auto;html=1;exitX=0.25;exitY=0;exitDx=0;exitDy=0;entryX=0.25;entryY=1;entryDx=0;entryDy=0;strokeColor=#FF0000;align=center;verticalAlign=middle;fontFamily=Helvetica;fontSize=11;fontColor=default;labelBackgroundColor=default;endArrow=classic;" parent="Ru3RgFExYkWAiuwz_G7w-193" source="HEp67iWyr1RidV_tDCYu-465" target="HEp67iWyr1RidV_tDCYu-460" edge="1">
          <mxGeometry relative="1" as="geometry" />
        </mxCell>
        <mxCell id="HEp67iWyr1RidV_tDCYu-465" value="A-Y" style="rounded=0;whiteSpace=wrap;html=1;strokeColor=#FF00FF;align=center;verticalAlign=middle;fontFamily=Helvetica;fontSize=12;fontColor=default;fillColor=default;" parent="Ru3RgFExYkWAiuwz_G7w-193" vertex="1">
          <mxGeometry x="310" y="125" width="40" height="20" as="geometry" />
        </mxCell>
        <mxCell id="HEp67iWyr1RidV_tDCYu-466" style="edgeStyle=orthogonalEdgeStyle;rounded=0;orthogonalLoop=1;jettySize=auto;html=1;exitX=0.25;exitY=0;exitDx=0;exitDy=0;entryX=0.25;entryY=1;entryDx=0;entryDy=0;strokeColor=#FF0000;align=center;verticalAlign=middle;fontFamily=Helvetica;fontSize=11;fontColor=default;labelBackgroundColor=default;endArrow=classic;" parent="Ru3RgFExYkWAiuwz_G7w-193" source="HEp67iWyr1RidV_tDCYu-467" target="HEp67iWyr1RidV_tDCYu-463" edge="1">
          <mxGeometry relative="1" as="geometry" />
        </mxCell>
        <mxCell id="HEp67iWyr1RidV_tDCYu-467" value="A-Y" style="rounded=0;whiteSpace=wrap;html=1;strokeColor=#FF00FF;align=center;verticalAlign=middle;fontFamily=Helvetica;fontSize=12;fontColor=default;fillColor=default;" parent="Ru3RgFExYkWAiuwz_G7w-193" vertex="1">
          <mxGeometry x="310" y="245" width="40" height="20" as="geometry" />
        </mxCell>
        <mxCell id="HEp67iWyr1RidV_tDCYu-468" value="" style="endArrow=classic;html=1;rounded=0;strokeColor=#FF0000;endFill=1;" parent="Ru3RgFExYkWAiuwz_G7w-193" edge="1">
          <mxGeometry width="50" height="50" relative="1" as="geometry">
            <mxPoint x="300" y="360" as="sourcePoint" />
            <mxPoint x="300" y="25" as="targetPoint" />
          </mxGeometry>
        </mxCell>
        <mxCell id="Ru3RgFExYkWAiuwz_G7w-182" value="" style="rounded=1;whiteSpace=wrap;html=1;fillColor=none;glass=0;shadow=0;arcSize=5;strokeColor=default;align=center;verticalAlign=middle;fontFamily=Helvetica;fontSize=12;fontColor=default;connectable=0;" parent="Ru3RgFExYkWAiuwz_G7w-193" vertex="1">
          <mxGeometry width="420" height="385" as="geometry" />
        </mxCell>
        <mxCell id="Ru3RgFExYkWAiuwz_G7w-194" value="" style="group" parent="1" vertex="1" connectable="0">
          <mxGeometry x="57" y="380" width="240" height="2580" as="geometry" />
        </mxCell>
        <mxCell id="Tjo_xKG83BjHhB87LPym-22" style="edgeStyle=orthogonalEdgeStyle;rounded=0;orthogonalLoop=1;jettySize=auto;html=1;exitX=0.75;exitY=0;exitDx=0;exitDy=0;entryX=0.75;entryY=1;entryDx=0;entryDy=0;strokeColor=#00CC00;" parent="Ru3RgFExYkWAiuwz_G7w-194" source="Tjo_xKG83BjHhB87LPym-1" target="Tjo_xKG83BjHhB87LPym-4" edge="1">
          <mxGeometry relative="1" as="geometry" />
        </mxCell>
        <mxCell id="Tjo_xKG83BjHhB87LPym-1" value="SR&amp;amp;0xE0&lt;br&gt;=&amp;gt;SR" style="rounded=0;whiteSpace=wrap;html=1;strokeColor=#00FFFF;" parent="Ru3RgFExYkWAiuwz_G7w-194" vertex="1">
          <mxGeometry x="30" y="160" width="40" height="50" as="geometry" />
        </mxCell>
        <mxCell id="Tjo_xKG83BjHhB87LPym-13" style="edgeStyle=orthogonalEdgeStyle;rounded=0;orthogonalLoop=1;jettySize=auto;html=1;exitX=0.25;exitY=1;exitDx=0;exitDy=0;strokeColor=#FF0000;align=center;verticalAlign=middle;fontFamily=Helvetica;fontSize=11;fontColor=default;labelBackgroundColor=default;endArrow=none;endFill=0;" parent="Ru3RgFExYkWAiuwz_G7w-194" source="Tjo_xKG83BjHhB87LPym-2" edge="1">
          <mxGeometry relative="1" as="geometry">
            <mxPoint x="20" y="290" as="targetPoint" />
            <Array as="points">
              <mxPoint x="40" y="290" />
            </Array>
          </mxGeometry>
        </mxCell>
        <mxCell id="Tjo_xKG83BjHhB87LPym-16" style="edgeStyle=orthogonalEdgeStyle;rounded=0;orthogonalLoop=1;jettySize=auto;html=1;exitX=0.25;exitY=0;exitDx=0;exitDy=0;entryX=0.25;entryY=1;entryDx=0;entryDy=0;strokeColor=#FF0000;align=center;verticalAlign=middle;fontFamily=Helvetica;fontSize=11;fontColor=default;labelBackgroundColor=default;endArrow=classic;" parent="Ru3RgFExYkWAiuwz_G7w-194" source="Tjo_xKG83BjHhB87LPym-2" target="Tjo_xKG83BjHhB87LPym-1" edge="1">
          <mxGeometry relative="1" as="geometry" />
        </mxCell>
        <mxCell id="Tjo_xKG83BjHhB87LPym-2" value="A&amp;gt;&amp;gt;24&lt;br&gt;=&amp;gt;SR" style="rounded=0;whiteSpace=wrap;html=1;strokeColor=#00FFFF;" parent="Ru3RgFExYkWAiuwz_G7w-194" vertex="1">
          <mxGeometry x="30" y="230" width="40" height="50" as="geometry" />
        </mxCell>
        <mxCell id="Tjo_xKG83BjHhB87LPym-3" value="EACH/0xE0&lt;div&gt;=&amp;gt;EACH&lt;/div&gt;" style="rounded=0;whiteSpace=wrap;html=1;strokeColor=#00FFFF;" parent="Ru3RgFExYkWAiuwz_G7w-194" vertex="1">
          <mxGeometry x="30" y="20" width="40" height="50" as="geometry" />
        </mxCell>
        <mxCell id="Tjo_xKG83BjHhB87LPym-23" style="edgeStyle=orthogonalEdgeStyle;rounded=0;orthogonalLoop=1;jettySize=auto;html=1;exitX=0.75;exitY=0;exitDx=0;exitDy=0;entryX=0.75;entryY=1;entryDx=0;entryDy=0;strokeColor=#00CC00;align=center;verticalAlign=middle;fontFamily=Helvetica;fontSize=11;fontColor=default;labelBackgroundColor=default;endArrow=classic;" parent="Ru3RgFExYkWAiuwz_G7w-194" source="Tjo_xKG83BjHhB87LPym-4" target="Tjo_xKG83BjHhB87LPym-3" edge="1">
          <mxGeometry relative="1" as="geometry" />
        </mxCell>
        <mxCell id="Tjo_xKG83BjHhB87LPym-4" value="EACH*0xFF&lt;br&gt;=&amp;gt;&lt;span style=&quot;background-color: initial;&quot;&gt;EACH&lt;/span&gt;" style="rounded=0;whiteSpace=wrap;html=1;strokeColor=#00FFFF;" parent="Ru3RgFExYkWAiuwz_G7w-194" vertex="1">
          <mxGeometry x="30" y="90" width="40" height="50" as="geometry" />
        </mxCell>
        <mxCell id="Tjo_xKG83BjHhB87LPym-21" style="edgeStyle=orthogonalEdgeStyle;rounded=0;orthogonalLoop=1;jettySize=auto;html=1;exitX=0.75;exitY=0;exitDx=0;exitDy=0;entryX=0.75;entryY=0;entryDx=0;entryDy=0;strokeColor=#00CC00;align=center;verticalAlign=middle;fontFamily=Helvetica;fontSize=11;fontColor=default;labelBackgroundColor=default;endArrow=none;endFill=0;" parent="Ru3RgFExYkWAiuwz_G7w-194" source="Tjo_xKG83BjHhB87LPym-6" target="Tjo_xKG83BjHhB87LPym-1" edge="1">
          <mxGeometry relative="1" as="geometry">
            <Array as="points">
              <mxPoint x="60" y="290" />
              <mxPoint x="80" y="290" />
              <mxPoint x="80" y="150" />
              <mxPoint x="60" y="150" />
            </Array>
          </mxGeometry>
        </mxCell>
        <mxCell id="Tjo_xKG83BjHhB87LPym-6" value="SG&amp;amp;0xE0&lt;div&gt;=&amp;gt;SG&lt;/div&gt;" style="rounded=0;whiteSpace=wrap;html=1;strokeColor=#00FFFF;" parent="Ru3RgFExYkWAiuwz_G7w-194" vertex="1">
          <mxGeometry x="30.1400000000001" y="300" width="40" height="50" as="geometry" />
        </mxCell>
        <mxCell id="Tjo_xKG83BjHhB87LPym-12" style="edgeStyle=orthogonalEdgeStyle;rounded=0;orthogonalLoop=1;jettySize=auto;html=1;exitX=0.25;exitY=1;exitDx=0;exitDy=0;strokeColor=#FF0000;align=center;verticalAlign=middle;fontFamily=Helvetica;fontSize=11;fontColor=default;labelBackgroundColor=default;endArrow=none;endFill=0;" parent="Ru3RgFExYkWAiuwz_G7w-194" source="Tjo_xKG83BjHhB87LPym-7" edge="1">
          <mxGeometry relative="1" as="geometry">
            <mxPoint x="20" y="430" as="targetPoint" />
            <Array as="points">
              <mxPoint x="40" y="430" />
            </Array>
          </mxGeometry>
        </mxCell>
        <mxCell id="Tjo_xKG83BjHhB87LPym-15" style="edgeStyle=orthogonalEdgeStyle;rounded=0;orthogonalLoop=1;jettySize=auto;html=1;exitX=0.25;exitY=0;exitDx=0;exitDy=0;entryX=0.25;entryY=1;entryDx=0;entryDy=0;strokeColor=#FF0000;align=center;verticalAlign=middle;fontFamily=Helvetica;fontSize=11;fontColor=default;labelBackgroundColor=default;endArrow=classic;" parent="Ru3RgFExYkWAiuwz_G7w-194" source="Tjo_xKG83BjHhB87LPym-7" target="Tjo_xKG83BjHhB87LPym-6" edge="1">
          <mxGeometry relative="1" as="geometry" />
        </mxCell>
        <mxCell id="Tjo_xKG83BjHhB87LPym-7" value="A&amp;gt;&amp;gt;21&lt;br&gt;=&amp;gt;SG" style="rounded=0;whiteSpace=wrap;html=1;strokeColor=#00FFFF;" parent="Ru3RgFExYkWAiuwz_G7w-194" vertex="1">
          <mxGeometry x="30.1400000000001" y="370" width="40" height="50" as="geometry" />
        </mxCell>
        <mxCell id="Tjo_xKG83BjHhB87LPym-20" style="edgeStyle=orthogonalEdgeStyle;rounded=0;orthogonalLoop=1;jettySize=auto;html=1;exitX=0.75;exitY=0;exitDx=0;exitDy=0;entryX=0.75;entryY=0;entryDx=0;entryDy=0;strokeColor=#00CC00;align=center;verticalAlign=middle;fontFamily=Helvetica;fontSize=11;fontColor=default;labelBackgroundColor=default;endArrow=none;endFill=0;" parent="Ru3RgFExYkWAiuwz_G7w-194" source="Tjo_xKG83BjHhB87LPym-8" target="Tjo_xKG83BjHhB87LPym-6" edge="1">
          <mxGeometry relative="1" as="geometry">
            <Array as="points">
              <mxPoint x="60" y="430" />
              <mxPoint x="80" y="430" />
              <mxPoint x="80" y="290" />
              <mxPoint x="60" y="290" />
            </Array>
          </mxGeometry>
        </mxCell>
        <mxCell id="Tjo_xKG83BjHhB87LPym-8" value="SB&amp;amp;0xC0&lt;br&gt;=&amp;gt;SB" style="rounded=0;whiteSpace=wrap;html=1;strokeColor=#00FFFF;" parent="Ru3RgFExYkWAiuwz_G7w-194" vertex="1">
          <mxGeometry x="30" y="440" width="40.07" height="50" as="geometry" />
        </mxCell>
        <mxCell id="Tjo_xKG83BjHhB87LPym-10" style="edgeStyle=orthogonalEdgeStyle;rounded=0;orthogonalLoop=1;jettySize=auto;html=1;exitX=0.25;exitY=1;exitDx=0;exitDy=0;strokeColor=#FF0000;align=center;verticalAlign=middle;fontFamily=Helvetica;fontSize=11;fontColor=default;labelBackgroundColor=default;endArrow=none;endFill=0;" parent="Ru3RgFExYkWAiuwz_G7w-194" source="Tjo_xKG83BjHhB87LPym-9" edge="1">
          <mxGeometry relative="1" as="geometry">
            <mxPoint x="20" y="570" as="targetPoint" />
            <Array as="points">
              <mxPoint x="40" y="570" />
            </Array>
          </mxGeometry>
        </mxCell>
        <mxCell id="Tjo_xKG83BjHhB87LPym-14" style="edgeStyle=orthogonalEdgeStyle;rounded=0;orthogonalLoop=1;jettySize=auto;html=1;exitX=0.25;exitY=0;exitDx=0;exitDy=0;entryX=0.25;entryY=1;entryDx=0;entryDy=0;strokeColor=#FF0000;align=center;verticalAlign=middle;fontFamily=Helvetica;fontSize=11;fontColor=default;labelBackgroundColor=default;endArrow=classic;" parent="Ru3RgFExYkWAiuwz_G7w-194" source="Tjo_xKG83BjHhB87LPym-9" target="Tjo_xKG83BjHhB87LPym-8" edge="1">
          <mxGeometry relative="1" as="geometry" />
        </mxCell>
        <mxCell id="Tjo_xKG83BjHhB87LPym-9" value="A&amp;gt;&amp;gt;18&lt;br&gt;=&amp;gt;SB" style="rounded=0;whiteSpace=wrap;html=1;strokeColor=#00FFFF;" parent="Ru3RgFExYkWAiuwz_G7w-194" vertex="1">
          <mxGeometry x="30.1400000000001" y="510" width="40" height="50" as="geometry" />
        </mxCell>
        <mxCell id="Ru3RgFExYkWAiuwz_G7w-14" style="edgeStyle=orthogonalEdgeStyle;rounded=0;orthogonalLoop=1;jettySize=auto;html=1;exitX=0.75;exitY=0;exitDx=0;exitDy=0;entryX=0.75;entryY=1;entryDx=0;entryDy=0;strokeColor=#00CC00;" parent="Ru3RgFExYkWAiuwz_G7w-194" source="Ru3RgFExYkWAiuwz_G7w-15" target="Ru3RgFExYkWAiuwz_G7w-20" edge="1">
          <mxGeometry relative="1" as="geometry" />
        </mxCell>
        <mxCell id="Ru3RgFExYkWAiuwz_G7w-15" value="SR&amp;amp;0xE0&lt;br&gt;=&amp;gt;SR" style="rounded=0;whiteSpace=wrap;html=1;strokeColor=#00FFFF;" parent="Ru3RgFExYkWAiuwz_G7w-194" vertex="1">
          <mxGeometry x="30.139999999999986" y="720" width="40" height="50" as="geometry" />
        </mxCell>
        <mxCell id="Ru3RgFExYkWAiuwz_G7w-16" style="edgeStyle=orthogonalEdgeStyle;rounded=0;orthogonalLoop=1;jettySize=auto;html=1;exitX=0.25;exitY=0;exitDx=0;exitDy=0;entryX=0.25;entryY=1;entryDx=0;entryDy=0;strokeColor=#FF0000;align=center;verticalAlign=middle;fontFamily=Helvetica;fontSize=11;fontColor=default;labelBackgroundColor=default;endArrow=classic;" parent="Ru3RgFExYkWAiuwz_G7w-194" source="Ru3RgFExYkWAiuwz_G7w-17" target="Ru3RgFExYkWAiuwz_G7w-15" edge="1">
          <mxGeometry relative="1" as="geometry" />
        </mxCell>
        <mxCell id="Ru3RgFExYkWAiuwz_G7w-70" style="edgeStyle=orthogonalEdgeStyle;rounded=0;orthogonalLoop=1;jettySize=auto;html=1;exitX=0.25;exitY=1;exitDx=0;exitDy=0;strokeColor=#FF0000;align=center;verticalAlign=middle;fontFamily=Helvetica;fontSize=11;fontColor=default;labelBackgroundColor=default;endArrow=none;endFill=0;" parent="Ru3RgFExYkWAiuwz_G7w-194" source="Ru3RgFExYkWAiuwz_G7w-17" edge="1">
          <mxGeometry relative="1" as="geometry">
            <mxPoint x="19.999999999999886" y="850" as="targetPoint" />
            <Array as="points">
              <mxPoint x="40" y="850" />
            </Array>
          </mxGeometry>
        </mxCell>
        <mxCell id="Ru3RgFExYkWAiuwz_G7w-17" value="A&amp;gt;&amp;gt;16&lt;br&gt;=&amp;gt;SR" style="rounded=0;whiteSpace=wrap;html=1;strokeColor=#00FFFF;" parent="Ru3RgFExYkWAiuwz_G7w-194" vertex="1">
          <mxGeometry x="30.139999999999986" y="790" width="40" height="50" as="geometry" />
        </mxCell>
        <mxCell id="Ru3RgFExYkWAiuwz_G7w-18" value="EACH/0xE0&lt;div&gt;=&amp;gt;EACH&lt;/div&gt;" style="rounded=0;whiteSpace=wrap;html=1;strokeColor=#00FFFF;" parent="Ru3RgFExYkWAiuwz_G7w-194" vertex="1">
          <mxGeometry x="30.139999999999986" y="580" width="40" height="50" as="geometry" />
        </mxCell>
        <mxCell id="Ru3RgFExYkWAiuwz_G7w-19" style="edgeStyle=orthogonalEdgeStyle;rounded=0;orthogonalLoop=1;jettySize=auto;html=1;exitX=0.75;exitY=0;exitDx=0;exitDy=0;entryX=0.75;entryY=1;entryDx=0;entryDy=0;strokeColor=#00CC00;align=center;verticalAlign=middle;fontFamily=Helvetica;fontSize=11;fontColor=default;labelBackgroundColor=default;endArrow=classic;" parent="Ru3RgFExYkWAiuwz_G7w-194" source="Ru3RgFExYkWAiuwz_G7w-20" target="Ru3RgFExYkWAiuwz_G7w-18" edge="1">
          <mxGeometry relative="1" as="geometry" />
        </mxCell>
        <mxCell id="Ru3RgFExYkWAiuwz_G7w-20" value="EACH*0xFF&lt;br&gt;=&amp;gt;&lt;span style=&quot;background-color: initial;&quot;&gt;EACH&lt;/span&gt;" style="rounded=0;whiteSpace=wrap;html=1;strokeColor=#00FFFF;" parent="Ru3RgFExYkWAiuwz_G7w-194" vertex="1">
          <mxGeometry x="30.139999999999986" y="650" width="40" height="50" as="geometry" />
        </mxCell>
        <mxCell id="Ru3RgFExYkWAiuwz_G7w-21" style="edgeStyle=orthogonalEdgeStyle;rounded=0;orthogonalLoop=1;jettySize=auto;html=1;exitX=0.75;exitY=0;exitDx=0;exitDy=0;entryX=0.75;entryY=0;entryDx=0;entryDy=0;strokeColor=#00CC00;align=center;verticalAlign=middle;fontFamily=Helvetica;fontSize=11;fontColor=default;labelBackgroundColor=default;endArrow=none;endFill=0;" parent="Ru3RgFExYkWAiuwz_G7w-194" source="Ru3RgFExYkWAiuwz_G7w-22" target="Ru3RgFExYkWAiuwz_G7w-15" edge="1">
          <mxGeometry relative="1" as="geometry">
            <Array as="points">
              <mxPoint x="60.139999999999986" y="850" />
              <mxPoint x="80.13999999999999" y="850" />
              <mxPoint x="80.13999999999999" y="710" />
              <mxPoint x="60.139999999999986" y="710" />
            </Array>
          </mxGeometry>
        </mxCell>
        <mxCell id="Ru3RgFExYkWAiuwz_G7w-22" value="SG&amp;amp;0xE0&lt;div&gt;=&amp;gt;SG&lt;/div&gt;" style="rounded=0;whiteSpace=wrap;html=1;strokeColor=#00FFFF;" parent="Ru3RgFExYkWAiuwz_G7w-194" vertex="1">
          <mxGeometry x="30.279999999999973" y="860" width="40" height="50" as="geometry" />
        </mxCell>
        <mxCell id="Ru3RgFExYkWAiuwz_G7w-23" style="edgeStyle=orthogonalEdgeStyle;rounded=0;orthogonalLoop=1;jettySize=auto;html=1;exitX=0.25;exitY=0;exitDx=0;exitDy=0;entryX=0.25;entryY=1;entryDx=0;entryDy=0;strokeColor=#FF0000;align=center;verticalAlign=middle;fontFamily=Helvetica;fontSize=11;fontColor=default;labelBackgroundColor=default;endArrow=classic;" parent="Ru3RgFExYkWAiuwz_G7w-194" source="Ru3RgFExYkWAiuwz_G7w-24" target="Ru3RgFExYkWAiuwz_G7w-22" edge="1">
          <mxGeometry relative="1" as="geometry" />
        </mxCell>
        <mxCell id="Ru3RgFExYkWAiuwz_G7w-71" style="edgeStyle=orthogonalEdgeStyle;rounded=0;orthogonalLoop=1;jettySize=auto;html=1;exitX=0.25;exitY=1;exitDx=0;exitDy=0;strokeColor=#FF0000;align=center;verticalAlign=middle;fontFamily=Helvetica;fontSize=11;fontColor=default;labelBackgroundColor=default;endArrow=none;endFill=0;" parent="Ru3RgFExYkWAiuwz_G7w-194" source="Ru3RgFExYkWAiuwz_G7w-24" edge="1">
          <mxGeometry relative="1" as="geometry">
            <mxPoint x="19.999999999999886" y="990" as="targetPoint" />
            <Array as="points">
              <mxPoint x="40" y="990" />
            </Array>
          </mxGeometry>
        </mxCell>
        <mxCell id="Ru3RgFExYkWAiuwz_G7w-24" value="A&amp;gt;&amp;gt;13&lt;br&gt;=&amp;gt;SG" style="rounded=0;whiteSpace=wrap;html=1;strokeColor=#00FFFF;" parent="Ru3RgFExYkWAiuwz_G7w-194" vertex="1">
          <mxGeometry x="30.279999999999973" y="930" width="40" height="50" as="geometry" />
        </mxCell>
        <mxCell id="Ru3RgFExYkWAiuwz_G7w-25" style="edgeStyle=orthogonalEdgeStyle;rounded=0;orthogonalLoop=1;jettySize=auto;html=1;exitX=0.75;exitY=0;exitDx=0;exitDy=0;entryX=0.75;entryY=0;entryDx=0;entryDy=0;strokeColor=#00CC00;align=center;verticalAlign=middle;fontFamily=Helvetica;fontSize=11;fontColor=default;labelBackgroundColor=default;endArrow=none;endFill=0;" parent="Ru3RgFExYkWAiuwz_G7w-194" source="Ru3RgFExYkWAiuwz_G7w-26" target="Ru3RgFExYkWAiuwz_G7w-22" edge="1">
          <mxGeometry relative="1" as="geometry">
            <Array as="points">
              <mxPoint x="60.139999999999986" y="990" />
              <mxPoint x="80.13999999999999" y="990" />
              <mxPoint x="80.13999999999999" y="850" />
              <mxPoint x="60.139999999999986" y="850" />
            </Array>
          </mxGeometry>
        </mxCell>
        <mxCell id="Ru3RgFExYkWAiuwz_G7w-26" value="SB&amp;amp;0xC0&lt;br&gt;=&amp;gt;SB" style="rounded=0;whiteSpace=wrap;html=1;strokeColor=#00FFFF;" parent="Ru3RgFExYkWAiuwz_G7w-194" vertex="1">
          <mxGeometry x="30.139999999999873" y="1000" width="40.07" height="50" as="geometry" />
        </mxCell>
        <mxCell id="Ru3RgFExYkWAiuwz_G7w-27" style="edgeStyle=orthogonalEdgeStyle;rounded=0;orthogonalLoop=1;jettySize=auto;html=1;exitX=0.25;exitY=0;exitDx=0;exitDy=0;entryX=0.25;entryY=1;entryDx=0;entryDy=0;strokeColor=#FF0000;align=center;verticalAlign=middle;fontFamily=Helvetica;fontSize=11;fontColor=default;labelBackgroundColor=default;endArrow=classic;" parent="Ru3RgFExYkWAiuwz_G7w-194" source="Ru3RgFExYkWAiuwz_G7w-28" target="Ru3RgFExYkWAiuwz_G7w-26" edge="1">
          <mxGeometry relative="1" as="geometry" />
        </mxCell>
        <mxCell id="Ru3RgFExYkWAiuwz_G7w-72" style="edgeStyle=orthogonalEdgeStyle;rounded=0;orthogonalLoop=1;jettySize=auto;html=1;exitX=0.25;exitY=1;exitDx=0;exitDy=0;strokeColor=#FF0000;align=center;verticalAlign=middle;fontFamily=Helvetica;fontSize=11;fontColor=default;labelBackgroundColor=default;endArrow=none;endFill=0;" parent="Ru3RgFExYkWAiuwz_G7w-194" source="Ru3RgFExYkWAiuwz_G7w-28" edge="1">
          <mxGeometry relative="1" as="geometry">
            <mxPoint x="19.999999999999886" y="1130" as="targetPoint" />
            <Array as="points">
              <mxPoint x="40" y="1130" />
            </Array>
          </mxGeometry>
        </mxCell>
        <mxCell id="Ru3RgFExYkWAiuwz_G7w-28" value="A&amp;gt;&amp;gt;10&lt;br&gt;=&amp;gt;SB" style="rounded=0;whiteSpace=wrap;html=1;strokeColor=#00FFFF;" parent="Ru3RgFExYkWAiuwz_G7w-194" vertex="1">
          <mxGeometry x="30.279999999999973" y="1070" width="40" height="50" as="geometry" />
        </mxCell>
        <mxCell id="Ru3RgFExYkWAiuwz_G7w-29" style="edgeStyle=orthogonalEdgeStyle;rounded=0;orthogonalLoop=1;jettySize=auto;html=1;exitX=0.75;exitY=0;exitDx=0;exitDy=0;entryX=0.75;entryY=1;entryDx=0;entryDy=0;strokeColor=#00CC00;" parent="Ru3RgFExYkWAiuwz_G7w-194" source="Ru3RgFExYkWAiuwz_G7w-30" target="Ru3RgFExYkWAiuwz_G7w-35" edge="1">
          <mxGeometry relative="1" as="geometry" />
        </mxCell>
        <mxCell id="Ru3RgFExYkWAiuwz_G7w-30" value="SR&amp;amp;0xE0&lt;br&gt;=&amp;gt;SR" style="rounded=0;whiteSpace=wrap;html=1;strokeColor=#00FFFF;" parent="Ru3RgFExYkWAiuwz_G7w-194" vertex="1">
          <mxGeometry x="30.279999999999973" y="1280" width="40" height="50" as="geometry" />
        </mxCell>
        <mxCell id="Ru3RgFExYkWAiuwz_G7w-31" style="edgeStyle=orthogonalEdgeStyle;rounded=0;orthogonalLoop=1;jettySize=auto;html=1;exitX=0.25;exitY=0;exitDx=0;exitDy=0;entryX=0.25;entryY=1;entryDx=0;entryDy=0;strokeColor=#FF0000;align=center;verticalAlign=middle;fontFamily=Helvetica;fontSize=11;fontColor=default;labelBackgroundColor=default;endArrow=classic;" parent="Ru3RgFExYkWAiuwz_G7w-194" source="Ru3RgFExYkWAiuwz_G7w-32" target="Ru3RgFExYkWAiuwz_G7w-30" edge="1">
          <mxGeometry relative="1" as="geometry" />
        </mxCell>
        <mxCell id="Ru3RgFExYkWAiuwz_G7w-73" style="edgeStyle=orthogonalEdgeStyle;rounded=0;orthogonalLoop=1;jettySize=auto;html=1;exitX=0.25;exitY=1;exitDx=0;exitDy=0;strokeColor=#FF0000;align=center;verticalAlign=middle;fontFamily=Helvetica;fontSize=11;fontColor=default;labelBackgroundColor=default;endArrow=none;endFill=0;" parent="Ru3RgFExYkWAiuwz_G7w-194" source="Ru3RgFExYkWAiuwz_G7w-32" edge="1">
          <mxGeometry relative="1" as="geometry">
            <mxPoint x="19.999999999999886" y="1410" as="targetPoint" />
            <Array as="points">
              <mxPoint x="40" y="1410" />
            </Array>
          </mxGeometry>
        </mxCell>
        <mxCell id="Ru3RgFExYkWAiuwz_G7w-32" value="A&amp;gt;&amp;gt;8&lt;br&gt;=&amp;gt;SR" style="rounded=0;whiteSpace=wrap;html=1;strokeColor=#00FFFF;" parent="Ru3RgFExYkWAiuwz_G7w-194" vertex="1">
          <mxGeometry x="30.279999999999973" y="1350" width="40" height="50" as="geometry" />
        </mxCell>
        <mxCell id="Ru3RgFExYkWAiuwz_G7w-33" value="EACH/0xE0&lt;div&gt;=&amp;gt;EACH&lt;/div&gt;" style="rounded=0;whiteSpace=wrap;html=1;strokeColor=#00FFFF;" parent="Ru3RgFExYkWAiuwz_G7w-194" vertex="1">
          <mxGeometry x="30.279999999999973" y="1140" width="40" height="50" as="geometry" />
        </mxCell>
        <mxCell id="Ru3RgFExYkWAiuwz_G7w-34" style="edgeStyle=orthogonalEdgeStyle;rounded=0;orthogonalLoop=1;jettySize=auto;html=1;exitX=0.75;exitY=0;exitDx=0;exitDy=0;entryX=0.75;entryY=1;entryDx=0;entryDy=0;strokeColor=#00CC00;align=center;verticalAlign=middle;fontFamily=Helvetica;fontSize=11;fontColor=default;labelBackgroundColor=default;endArrow=classic;" parent="Ru3RgFExYkWAiuwz_G7w-194" source="Ru3RgFExYkWAiuwz_G7w-35" target="Ru3RgFExYkWAiuwz_G7w-33" edge="1">
          <mxGeometry relative="1" as="geometry" />
        </mxCell>
        <mxCell id="Ru3RgFExYkWAiuwz_G7w-35" value="EACH*0xFF&lt;br&gt;=&amp;gt;&lt;span style=&quot;background-color: initial;&quot;&gt;EACH&lt;/span&gt;" style="rounded=0;whiteSpace=wrap;html=1;strokeColor=#00FFFF;" parent="Ru3RgFExYkWAiuwz_G7w-194" vertex="1">
          <mxGeometry x="30.279999999999973" y="1210" width="40" height="50" as="geometry" />
        </mxCell>
        <mxCell id="Ru3RgFExYkWAiuwz_G7w-36" style="edgeStyle=orthogonalEdgeStyle;rounded=0;orthogonalLoop=1;jettySize=auto;html=1;exitX=0.75;exitY=0;exitDx=0;exitDy=0;entryX=0.75;entryY=0;entryDx=0;entryDy=0;strokeColor=#00CC00;align=center;verticalAlign=middle;fontFamily=Helvetica;fontSize=11;fontColor=default;labelBackgroundColor=default;endArrow=none;endFill=0;" parent="Ru3RgFExYkWAiuwz_G7w-194" source="Ru3RgFExYkWAiuwz_G7w-37" target="Ru3RgFExYkWAiuwz_G7w-30" edge="1">
          <mxGeometry relative="1" as="geometry">
            <Array as="points">
              <mxPoint x="60.27999999999997" y="1410" />
              <mxPoint x="80.27999999999997" y="1410" />
              <mxPoint x="80.27999999999997" y="1270" />
              <mxPoint x="60.27999999999997" y="1270" />
            </Array>
          </mxGeometry>
        </mxCell>
        <mxCell id="Ru3RgFExYkWAiuwz_G7w-37" value="SG&amp;amp;0xE0&lt;div&gt;=&amp;gt;SG&lt;/div&gt;" style="rounded=0;whiteSpace=wrap;html=1;strokeColor=#00FFFF;" parent="Ru3RgFExYkWAiuwz_G7w-194" vertex="1">
          <mxGeometry x="30.420000000000073" y="1420" width="40" height="50" as="geometry" />
        </mxCell>
        <mxCell id="Ru3RgFExYkWAiuwz_G7w-38" style="edgeStyle=orthogonalEdgeStyle;rounded=0;orthogonalLoop=1;jettySize=auto;html=1;exitX=0.25;exitY=0;exitDx=0;exitDy=0;entryX=0.25;entryY=1;entryDx=0;entryDy=0;strokeColor=#FF0000;align=center;verticalAlign=middle;fontFamily=Helvetica;fontSize=11;fontColor=default;labelBackgroundColor=default;endArrow=classic;" parent="Ru3RgFExYkWAiuwz_G7w-194" source="Ru3RgFExYkWAiuwz_G7w-39" target="Ru3RgFExYkWAiuwz_G7w-37" edge="1">
          <mxGeometry relative="1" as="geometry" />
        </mxCell>
        <mxCell id="Ru3RgFExYkWAiuwz_G7w-74" style="edgeStyle=orthogonalEdgeStyle;rounded=0;orthogonalLoop=1;jettySize=auto;html=1;exitX=0.25;exitY=1;exitDx=0;exitDy=0;strokeColor=#FF0000;align=center;verticalAlign=middle;fontFamily=Helvetica;fontSize=11;fontColor=default;labelBackgroundColor=default;endArrow=none;endFill=0;" parent="Ru3RgFExYkWAiuwz_G7w-194" source="Ru3RgFExYkWAiuwz_G7w-39" edge="1">
          <mxGeometry relative="1" as="geometry">
            <mxPoint x="19.999999999999886" y="1550" as="targetPoint" />
            <Array as="points">
              <mxPoint x="40" y="1550" />
            </Array>
          </mxGeometry>
        </mxCell>
        <mxCell id="Ru3RgFExYkWAiuwz_G7w-39" value="A&amp;gt;&amp;gt;5&lt;br&gt;=&amp;gt;SG" style="rounded=0;whiteSpace=wrap;html=1;strokeColor=#00FFFF;" parent="Ru3RgFExYkWAiuwz_G7w-194" vertex="1">
          <mxGeometry x="30.420000000000073" y="1490" width="40" height="50" as="geometry" />
        </mxCell>
        <mxCell id="Ru3RgFExYkWAiuwz_G7w-40" style="edgeStyle=orthogonalEdgeStyle;rounded=0;orthogonalLoop=1;jettySize=auto;html=1;exitX=0.75;exitY=0;exitDx=0;exitDy=0;entryX=0.75;entryY=0;entryDx=0;entryDy=0;strokeColor=#00CC00;align=center;verticalAlign=middle;fontFamily=Helvetica;fontSize=11;fontColor=default;labelBackgroundColor=default;endArrow=none;endFill=0;" parent="Ru3RgFExYkWAiuwz_G7w-194" source="Ru3RgFExYkWAiuwz_G7w-41" target="Ru3RgFExYkWAiuwz_G7w-37" edge="1">
          <mxGeometry relative="1" as="geometry">
            <Array as="points">
              <mxPoint x="60.27999999999997" y="1550" />
              <mxPoint x="80.27999999999997" y="1550" />
              <mxPoint x="80.27999999999997" y="1410" />
              <mxPoint x="60.27999999999997" y="1410" />
            </Array>
          </mxGeometry>
        </mxCell>
        <mxCell id="Ru3RgFExYkWAiuwz_G7w-41" value="SB&amp;amp;0xC0&lt;br&gt;=&amp;gt;SB" style="rounded=0;whiteSpace=wrap;html=1;strokeColor=#00FFFF;" parent="Ru3RgFExYkWAiuwz_G7w-194" vertex="1">
          <mxGeometry x="30.279999999999973" y="1560" width="40.07" height="50" as="geometry" />
        </mxCell>
        <mxCell id="Ru3RgFExYkWAiuwz_G7w-42" style="edgeStyle=orthogonalEdgeStyle;rounded=0;orthogonalLoop=1;jettySize=auto;html=1;exitX=0.25;exitY=0;exitDx=0;exitDy=0;entryX=0.25;entryY=1;entryDx=0;entryDy=0;strokeColor=#FF0000;align=center;verticalAlign=middle;fontFamily=Helvetica;fontSize=11;fontColor=default;labelBackgroundColor=default;endArrow=classic;" parent="Ru3RgFExYkWAiuwz_G7w-194" source="Ru3RgFExYkWAiuwz_G7w-43" target="Ru3RgFExYkWAiuwz_G7w-41" edge="1">
          <mxGeometry relative="1" as="geometry" />
        </mxCell>
        <mxCell id="Ru3RgFExYkWAiuwz_G7w-75" style="edgeStyle=orthogonalEdgeStyle;rounded=0;orthogonalLoop=1;jettySize=auto;html=1;exitX=0.25;exitY=1;exitDx=0;exitDy=0;strokeColor=#FF0000;align=center;verticalAlign=middle;fontFamily=Helvetica;fontSize=11;fontColor=default;labelBackgroundColor=default;endArrow=none;endFill=0;" parent="Ru3RgFExYkWAiuwz_G7w-194" source="Ru3RgFExYkWAiuwz_G7w-43" edge="1">
          <mxGeometry relative="1" as="geometry">
            <mxPoint x="19.999999999999886" y="1690" as="targetPoint" />
            <Array as="points">
              <mxPoint x="40" y="1690" />
            </Array>
          </mxGeometry>
        </mxCell>
        <mxCell id="Ru3RgFExYkWAiuwz_G7w-43" value="A&amp;gt;&amp;gt;2&lt;br&gt;=&amp;gt;SB" style="rounded=0;whiteSpace=wrap;html=1;strokeColor=#00FFFF;" parent="Ru3RgFExYkWAiuwz_G7w-194" vertex="1">
          <mxGeometry x="30.420000000000073" y="1630" width="40" height="50" as="geometry" />
        </mxCell>
        <mxCell id="Ru3RgFExYkWAiuwz_G7w-44" style="edgeStyle=orthogonalEdgeStyle;rounded=0;orthogonalLoop=1;jettySize=auto;html=1;exitX=0.75;exitY=0;exitDx=0;exitDy=0;entryX=0.75;entryY=1;entryDx=0;entryDy=0;strokeColor=#00CC00;" parent="Ru3RgFExYkWAiuwz_G7w-194" source="Ru3RgFExYkWAiuwz_G7w-45" target="Ru3RgFExYkWAiuwz_G7w-50" edge="1">
          <mxGeometry relative="1" as="geometry" />
        </mxCell>
        <mxCell id="Ru3RgFExYkWAiuwz_G7w-45" value="SR&amp;amp;0xE0&lt;br&gt;=&amp;gt;SR" style="rounded=0;whiteSpace=wrap;html=1;strokeColor=#00FFFF;" parent="Ru3RgFExYkWAiuwz_G7w-194" vertex="1">
          <mxGeometry x="30.41999999999996" y="1840" width="40" height="50" as="geometry" />
        </mxCell>
        <mxCell id="Ru3RgFExYkWAiuwz_G7w-46" style="edgeStyle=orthogonalEdgeStyle;rounded=0;orthogonalLoop=1;jettySize=auto;html=1;exitX=0.25;exitY=0;exitDx=0;exitDy=0;entryX=0.25;entryY=1;entryDx=0;entryDy=0;strokeColor=#FF0000;align=center;verticalAlign=middle;fontFamily=Helvetica;fontSize=11;fontColor=default;labelBackgroundColor=default;endArrow=classic;" parent="Ru3RgFExYkWAiuwz_G7w-194" source="Ru3RgFExYkWAiuwz_G7w-47" target="Ru3RgFExYkWAiuwz_G7w-45" edge="1">
          <mxGeometry relative="1" as="geometry" />
        </mxCell>
        <mxCell id="Ru3RgFExYkWAiuwz_G7w-76" style="edgeStyle=orthogonalEdgeStyle;rounded=0;orthogonalLoop=1;jettySize=auto;html=1;exitX=0.25;exitY=1;exitDx=0;exitDy=0;strokeColor=#FF0000;align=center;verticalAlign=middle;fontFamily=Helvetica;fontSize=11;fontColor=default;labelBackgroundColor=default;endArrow=none;endFill=0;" parent="Ru3RgFExYkWAiuwz_G7w-194" source="Ru3RgFExYkWAiuwz_G7w-47" edge="1">
          <mxGeometry relative="1" as="geometry">
            <mxPoint x="19.999999999999886" y="1970" as="targetPoint" />
            <Array as="points">
              <mxPoint x="40" y="1970" />
            </Array>
          </mxGeometry>
        </mxCell>
        <mxCell id="Ru3RgFExYkWAiuwz_G7w-47" value="A&amp;lt;&amp;lt;0&lt;br&gt;=&amp;gt;SR" style="rounded=0;whiteSpace=wrap;html=1;strokeColor=#00FFFF;" parent="Ru3RgFExYkWAiuwz_G7w-194" vertex="1">
          <mxGeometry x="30.41999999999996" y="1910" width="40" height="50" as="geometry" />
        </mxCell>
        <mxCell id="Ru3RgFExYkWAiuwz_G7w-48" value="EACH/0xE0&lt;div&gt;=&amp;gt;EACH&lt;/div&gt;" style="rounded=0;whiteSpace=wrap;html=1;strokeColor=#00FFFF;" parent="Ru3RgFExYkWAiuwz_G7w-194" vertex="1">
          <mxGeometry x="30.41999999999996" y="1700" width="40" height="50" as="geometry" />
        </mxCell>
        <mxCell id="Ru3RgFExYkWAiuwz_G7w-49" style="edgeStyle=orthogonalEdgeStyle;rounded=0;orthogonalLoop=1;jettySize=auto;html=1;exitX=0.75;exitY=0;exitDx=0;exitDy=0;entryX=0.75;entryY=1;entryDx=0;entryDy=0;strokeColor=#00CC00;align=center;verticalAlign=middle;fontFamily=Helvetica;fontSize=11;fontColor=default;labelBackgroundColor=default;endArrow=classic;" parent="Ru3RgFExYkWAiuwz_G7w-194" source="Ru3RgFExYkWAiuwz_G7w-50" target="Ru3RgFExYkWAiuwz_G7w-48" edge="1">
          <mxGeometry relative="1" as="geometry" />
        </mxCell>
        <mxCell id="Ru3RgFExYkWAiuwz_G7w-50" value="EACH*0xFF&lt;br&gt;=&amp;gt;&lt;span style=&quot;background-color: initial;&quot;&gt;EACH&lt;/span&gt;" style="rounded=0;whiteSpace=wrap;html=1;strokeColor=#00FFFF;" parent="Ru3RgFExYkWAiuwz_G7w-194" vertex="1">
          <mxGeometry x="30.41999999999996" y="1770" width="40" height="50" as="geometry" />
        </mxCell>
        <mxCell id="Ru3RgFExYkWAiuwz_G7w-51" style="edgeStyle=orthogonalEdgeStyle;rounded=0;orthogonalLoop=1;jettySize=auto;html=1;exitX=0.75;exitY=0;exitDx=0;exitDy=0;entryX=0.75;entryY=0;entryDx=0;entryDy=0;strokeColor=#00CC00;align=center;verticalAlign=middle;fontFamily=Helvetica;fontSize=11;fontColor=default;labelBackgroundColor=default;endArrow=none;endFill=0;" parent="Ru3RgFExYkWAiuwz_G7w-194" source="Ru3RgFExYkWAiuwz_G7w-52" target="Ru3RgFExYkWAiuwz_G7w-45" edge="1">
          <mxGeometry relative="1" as="geometry">
            <Array as="points">
              <mxPoint x="60.41999999999996" y="1970" />
              <mxPoint x="80.41999999999996" y="1970" />
              <mxPoint x="80.41999999999996" y="1830" />
              <mxPoint x="60.41999999999996" y="1830" />
            </Array>
          </mxGeometry>
        </mxCell>
        <mxCell id="Ru3RgFExYkWAiuwz_G7w-52" value="SG&amp;amp;0xE0&lt;div&gt;=&amp;gt;SG&lt;/div&gt;" style="rounded=0;whiteSpace=wrap;html=1;strokeColor=#00FFFF;" parent="Ru3RgFExYkWAiuwz_G7w-194" vertex="1">
          <mxGeometry x="30.559999999999945" y="1980" width="40" height="50" as="geometry" />
        </mxCell>
        <mxCell id="Ru3RgFExYkWAiuwz_G7w-53" style="edgeStyle=orthogonalEdgeStyle;rounded=0;orthogonalLoop=1;jettySize=auto;html=1;exitX=0.25;exitY=0;exitDx=0;exitDy=0;entryX=0.25;entryY=1;entryDx=0;entryDy=0;strokeColor=#FF0000;align=center;verticalAlign=middle;fontFamily=Helvetica;fontSize=11;fontColor=default;labelBackgroundColor=default;endArrow=classic;" parent="Ru3RgFExYkWAiuwz_G7w-194" source="Ru3RgFExYkWAiuwz_G7w-54" target="Ru3RgFExYkWAiuwz_G7w-52" edge="1">
          <mxGeometry relative="1" as="geometry" />
        </mxCell>
        <mxCell id="Ru3RgFExYkWAiuwz_G7w-77" style="edgeStyle=orthogonalEdgeStyle;rounded=0;orthogonalLoop=1;jettySize=auto;html=1;exitX=0.25;exitY=1;exitDx=0;exitDy=0;strokeColor=#FF0000;align=center;verticalAlign=middle;fontFamily=Helvetica;fontSize=11;fontColor=default;labelBackgroundColor=default;endArrow=none;endFill=0;" parent="Ru3RgFExYkWAiuwz_G7w-194" source="Ru3RgFExYkWAiuwz_G7w-54" edge="1">
          <mxGeometry relative="1" as="geometry">
            <mxPoint x="19.999999999999886" y="2110" as="targetPoint" />
            <Array as="points">
              <mxPoint x="41" y="2110" />
            </Array>
          </mxGeometry>
        </mxCell>
        <mxCell id="Ru3RgFExYkWAiuwz_G7w-54" value="A&amp;lt;&amp;lt;3&lt;br&gt;=&amp;gt;SG" style="rounded=0;whiteSpace=wrap;html=1;strokeColor=#00FFFF;" parent="Ru3RgFExYkWAiuwz_G7w-194" vertex="1">
          <mxGeometry x="30.559999999999945" y="2050" width="40" height="50" as="geometry" />
        </mxCell>
        <mxCell id="Ru3RgFExYkWAiuwz_G7w-55" style="edgeStyle=orthogonalEdgeStyle;rounded=0;orthogonalLoop=1;jettySize=auto;html=1;exitX=0.75;exitY=0;exitDx=0;exitDy=0;entryX=0.75;entryY=0;entryDx=0;entryDy=0;strokeColor=#00CC00;align=center;verticalAlign=middle;fontFamily=Helvetica;fontSize=11;fontColor=default;labelBackgroundColor=default;endArrow=none;endFill=0;" parent="Ru3RgFExYkWAiuwz_G7w-194" source="Ru3RgFExYkWAiuwz_G7w-56" target="Ru3RgFExYkWAiuwz_G7w-52" edge="1">
          <mxGeometry relative="1" as="geometry">
            <Array as="points">
              <mxPoint x="60.41999999999996" y="2110" />
              <mxPoint x="80.41999999999996" y="2110" />
              <mxPoint x="80.41999999999996" y="1970" />
              <mxPoint x="60.41999999999996" y="1970" />
            </Array>
          </mxGeometry>
        </mxCell>
        <mxCell id="Ru3RgFExYkWAiuwz_G7w-56" value="SB&amp;amp;0xC0&lt;br&gt;=&amp;gt;SB" style="rounded=0;whiteSpace=wrap;html=1;strokeColor=#00FFFF;" parent="Ru3RgFExYkWAiuwz_G7w-194" vertex="1">
          <mxGeometry x="30.419999999999845" y="2120" width="40.07" height="50" as="geometry" />
        </mxCell>
        <mxCell id="Ru3RgFExYkWAiuwz_G7w-57" style="edgeStyle=orthogonalEdgeStyle;rounded=0;orthogonalLoop=1;jettySize=auto;html=1;exitX=0.25;exitY=0;exitDx=0;exitDy=0;entryX=0.25;entryY=1;entryDx=0;entryDy=0;strokeColor=#FF0000;align=center;verticalAlign=middle;fontFamily=Helvetica;fontSize=11;fontColor=default;labelBackgroundColor=default;endArrow=classic;" parent="Ru3RgFExYkWAiuwz_G7w-194" source="Ru3RgFExYkWAiuwz_G7w-58" target="Ru3RgFExYkWAiuwz_G7w-56" edge="1">
          <mxGeometry relative="1" as="geometry" />
        </mxCell>
        <mxCell id="Ru3RgFExYkWAiuwz_G7w-78" style="edgeStyle=orthogonalEdgeStyle;rounded=0;orthogonalLoop=1;jettySize=auto;html=1;exitX=0.25;exitY=1;exitDx=0;exitDy=0;strokeColor=#FF0000;align=center;verticalAlign=middle;fontFamily=Helvetica;fontSize=11;fontColor=default;labelBackgroundColor=default;endArrow=none;endFill=0;" parent="Ru3RgFExYkWAiuwz_G7w-194" source="Ru3RgFExYkWAiuwz_G7w-58" edge="1">
          <mxGeometry relative="1" as="geometry">
            <mxPoint x="19.999999999999886" y="2250" as="targetPoint" />
            <Array as="points">
              <mxPoint x="41" y="2250" />
            </Array>
          </mxGeometry>
        </mxCell>
        <mxCell id="Ru3RgFExYkWAiuwz_G7w-58" value="A&amp;lt;&amp;lt;6&lt;br&gt;=&amp;gt;SB" style="rounded=0;whiteSpace=wrap;html=1;strokeColor=#00FFFF;" parent="Ru3RgFExYkWAiuwz_G7w-194" vertex="1">
          <mxGeometry x="30.559999999999945" y="2190" width="40" height="50" as="geometry" />
        </mxCell>
        <mxCell id="Ru3RgFExYkWAiuwz_G7w-59" style="edgeStyle=orthogonalEdgeStyle;rounded=0;orthogonalLoop=1;jettySize=auto;html=1;exitX=0.75;exitY=0;exitDx=0;exitDy=0;entryX=0.75;entryY=1;entryDx=0;entryDy=0;strokeColor=#00CC00;" parent="Ru3RgFExYkWAiuwz_G7w-194" source="Ru3RgFExYkWAiuwz_G7w-60" target="Ru3RgFExYkWAiuwz_G7w-66" edge="1">
          <mxGeometry relative="1" as="geometry" />
        </mxCell>
        <mxCell id="Ru3RgFExYkWAiuwz_G7w-80" style="edgeStyle=orthogonalEdgeStyle;rounded=0;orthogonalLoop=1;jettySize=auto;html=1;exitX=0.75;exitY=0;exitDx=0;exitDy=0;strokeColor=#00CC00;endArrow=none;endFill=0;" parent="Ru3RgFExYkWAiuwz_G7w-194" source="Ru3RgFExYkWAiuwz_G7w-60" edge="1">
          <mxGeometry relative="1" as="geometry">
            <mxPoint x="79.99999999999989" y="2430" as="targetPoint" />
            <Array as="points">
              <mxPoint x="61" y="2390" />
              <mxPoint x="80" y="2390" />
            </Array>
          </mxGeometry>
        </mxCell>
        <mxCell id="Ru3RgFExYkWAiuwz_G7w-60" value="SR&amp;amp;0xE0&lt;br&gt;=&amp;gt;SR" style="rounded=0;whiteSpace=wrap;html=1;strokeColor=#00FFFF;" parent="Ru3RgFExYkWAiuwz_G7w-194" vertex="1">
          <mxGeometry x="30.559999999999945" y="2400" width="40" height="50" as="geometry" />
        </mxCell>
        <mxCell id="Ru3RgFExYkWAiuwz_G7w-62" style="edgeStyle=orthogonalEdgeStyle;rounded=0;orthogonalLoop=1;jettySize=auto;html=1;exitX=0.25;exitY=0;exitDx=0;exitDy=0;entryX=0.25;entryY=1;entryDx=0;entryDy=0;strokeColor=#FF0000;align=center;verticalAlign=middle;fontFamily=Helvetica;fontSize=11;fontColor=default;labelBackgroundColor=default;endArrow=classic;" parent="Ru3RgFExYkWAiuwz_G7w-194" source="Ru3RgFExYkWAiuwz_G7w-63" target="Ru3RgFExYkWAiuwz_G7w-60" edge="1">
          <mxGeometry relative="1" as="geometry" />
        </mxCell>
        <mxCell id="Ru3RgFExYkWAiuwz_G7w-79" style="edgeStyle=orthogonalEdgeStyle;rounded=0;orthogonalLoop=1;jettySize=auto;html=1;exitX=0.25;exitY=1;exitDx=0;exitDy=0;strokeColor=#FF0000;align=center;verticalAlign=middle;fontFamily=Helvetica;fontSize=11;fontColor=default;labelBackgroundColor=default;endArrow=none;endFill=0;" parent="Ru3RgFExYkWAiuwz_G7w-194" source="Ru3RgFExYkWAiuwz_G7w-63" edge="1">
          <mxGeometry relative="1" as="geometry">
            <mxPoint x="19.999999999999886" y="2530" as="targetPoint" />
            <Array as="points">
              <mxPoint x="41" y="2530" />
            </Array>
          </mxGeometry>
        </mxCell>
        <mxCell id="Ru3RgFExYkWAiuwz_G7w-63" value="B&amp;gt;&amp;gt;24&lt;br&gt;=&amp;gt;SR" style="rounded=0;whiteSpace=wrap;html=1;strokeColor=#00FFFF;" parent="Ru3RgFExYkWAiuwz_G7w-194" vertex="1">
          <mxGeometry x="30.559999999999945" y="2470" width="40" height="50" as="geometry" />
        </mxCell>
        <mxCell id="Ru3RgFExYkWAiuwz_G7w-83" style="edgeStyle=orthogonalEdgeStyle;rounded=0;orthogonalLoop=1;jettySize=auto;html=1;exitX=0.75;exitY=0;exitDx=0;exitDy=0;strokeColor=#00CC00;align=center;verticalAlign=middle;fontFamily=Helvetica;fontSize=11;fontColor=default;labelBackgroundColor=default;endArrow=classic;" parent="Ru3RgFExYkWAiuwz_G7w-194" source="Ru3RgFExYkWAiuwz_G7w-64" edge="1">
          <mxGeometry relative="1" as="geometry">
            <mxPoint x="80" y="2230" as="targetPoint" />
            <Array as="points">
              <mxPoint x="61" y="2250" />
              <mxPoint x="80" y="2250" />
            </Array>
          </mxGeometry>
        </mxCell>
        <mxCell id="Ru3RgFExYkWAiuwz_G7w-64" value="EACH/0xE0&lt;div&gt;=&amp;gt;EACH&lt;/div&gt;" style="rounded=0;whiteSpace=wrap;html=1;strokeColor=#00FFFF;" parent="Ru3RgFExYkWAiuwz_G7w-194" vertex="1">
          <mxGeometry x="30.559999999999945" y="2260" width="40" height="50" as="geometry" />
        </mxCell>
        <mxCell id="Ru3RgFExYkWAiuwz_G7w-65" style="edgeStyle=orthogonalEdgeStyle;rounded=0;orthogonalLoop=1;jettySize=auto;html=1;exitX=0.75;exitY=0;exitDx=0;exitDy=0;entryX=0.75;entryY=1;entryDx=0;entryDy=0;strokeColor=#00CC00;align=center;verticalAlign=middle;fontFamily=Helvetica;fontSize=11;fontColor=default;labelBackgroundColor=default;endArrow=classic;" parent="Ru3RgFExYkWAiuwz_G7w-194" source="Ru3RgFExYkWAiuwz_G7w-66" target="Ru3RgFExYkWAiuwz_G7w-64" edge="1">
          <mxGeometry relative="1" as="geometry" />
        </mxCell>
        <mxCell id="Ru3RgFExYkWAiuwz_G7w-66" value="EACH*0xFF&lt;br&gt;=&amp;gt;&lt;span style=&quot;background-color: initial;&quot;&gt;EACH&lt;/span&gt;" style="rounded=0;whiteSpace=wrap;html=1;strokeColor=#00FFFF;" parent="Ru3RgFExYkWAiuwz_G7w-194" vertex="1">
          <mxGeometry x="30.559999999999945" y="2330" width="40" height="50" as="geometry" />
        </mxCell>
        <mxCell id="Ru3RgFExYkWAiuwz_G7w-85" style="edgeStyle=orthogonalEdgeStyle;rounded=0;orthogonalLoop=1;jettySize=auto;html=1;exitX=0.75;exitY=0;exitDx=0;exitDy=0;entryX=0.75;entryY=1;entryDx=0;entryDy=0;strokeColor=#00CC00;" parent="Ru3RgFExYkWAiuwz_G7w-194" source="Ru3RgFExYkWAiuwz_G7w-86" target="Ru3RgFExYkWAiuwz_G7w-93" edge="1">
          <mxGeometry relative="1" as="geometry" />
        </mxCell>
        <mxCell id="Ru3RgFExYkWAiuwz_G7w-86" value="SR&amp;amp;0xE0&lt;br&gt;=&amp;gt;SR" style="rounded=0;whiteSpace=wrap;html=1;strokeColor=#00FFFF;" parent="Ru3RgFExYkWAiuwz_G7w-194" vertex="1">
          <mxGeometry x="140" y="160" width="40" height="50" as="geometry" />
        </mxCell>
        <mxCell id="Ru3RgFExYkWAiuwz_G7w-87" style="edgeStyle=orthogonalEdgeStyle;rounded=0;orthogonalLoop=1;jettySize=auto;html=1;exitX=0.25;exitY=1;exitDx=0;exitDy=0;strokeColor=#FF0000;align=center;verticalAlign=middle;fontFamily=Helvetica;fontSize=11;fontColor=default;labelBackgroundColor=default;endArrow=none;endFill=0;" parent="Ru3RgFExYkWAiuwz_G7w-194" source="Ru3RgFExYkWAiuwz_G7w-89" edge="1">
          <mxGeometry relative="1" as="geometry">
            <mxPoint x="130" y="290" as="targetPoint" />
            <Array as="points">
              <mxPoint x="150" y="290" />
            </Array>
          </mxGeometry>
        </mxCell>
        <mxCell id="Ru3RgFExYkWAiuwz_G7w-88" style="edgeStyle=orthogonalEdgeStyle;rounded=0;orthogonalLoop=1;jettySize=auto;html=1;exitX=0.25;exitY=0;exitDx=0;exitDy=0;entryX=0.25;entryY=1;entryDx=0;entryDy=0;strokeColor=#FF0000;align=center;verticalAlign=middle;fontFamily=Helvetica;fontSize=11;fontColor=default;labelBackgroundColor=default;endArrow=classic;" parent="Ru3RgFExYkWAiuwz_G7w-194" source="Ru3RgFExYkWAiuwz_G7w-89" target="Ru3RgFExYkWAiuwz_G7w-86" edge="1">
          <mxGeometry relative="1" as="geometry" />
        </mxCell>
        <mxCell id="Ru3RgFExYkWAiuwz_G7w-89" value="A&amp;gt;&amp;gt;24&lt;br&gt;=&amp;gt;SR" style="rounded=0;whiteSpace=wrap;html=1;strokeColor=#00FFFF;" parent="Ru3RgFExYkWAiuwz_G7w-194" vertex="1">
          <mxGeometry x="140" y="230" width="40" height="50" as="geometry" />
        </mxCell>
        <mxCell id="Ru3RgFExYkWAiuwz_G7w-91" value="EACH/0xE0&lt;div&gt;=&amp;gt;EACH&lt;/div&gt;" style="rounded=0;whiteSpace=wrap;html=1;strokeColor=#00FFFF;" parent="Ru3RgFExYkWAiuwz_G7w-194" vertex="1">
          <mxGeometry x="140" y="20" width="40" height="50" as="geometry" />
        </mxCell>
        <mxCell id="Ru3RgFExYkWAiuwz_G7w-92" style="edgeStyle=orthogonalEdgeStyle;rounded=0;orthogonalLoop=1;jettySize=auto;html=1;exitX=0.75;exitY=0;exitDx=0;exitDy=0;entryX=0.75;entryY=1;entryDx=0;entryDy=0;strokeColor=#00CC00;align=center;verticalAlign=middle;fontFamily=Helvetica;fontSize=11;fontColor=default;labelBackgroundColor=default;endArrow=classic;" parent="Ru3RgFExYkWAiuwz_G7w-194" source="Ru3RgFExYkWAiuwz_G7w-93" target="Ru3RgFExYkWAiuwz_G7w-91" edge="1">
          <mxGeometry relative="1" as="geometry" />
        </mxCell>
        <mxCell id="Ru3RgFExYkWAiuwz_G7w-93" value="EACH*0xFF&lt;br&gt;=&amp;gt;&lt;span style=&quot;background-color: initial;&quot;&gt;EACH&lt;/span&gt;" style="rounded=0;whiteSpace=wrap;html=1;strokeColor=#00FFFF;" parent="Ru3RgFExYkWAiuwz_G7w-194" vertex="1">
          <mxGeometry x="140" y="90" width="40" height="50" as="geometry" />
        </mxCell>
        <mxCell id="Ru3RgFExYkWAiuwz_G7w-95" style="edgeStyle=orthogonalEdgeStyle;rounded=0;orthogonalLoop=1;jettySize=auto;html=1;exitX=0.75;exitY=0;exitDx=0;exitDy=0;entryX=0.75;entryY=0;entryDx=0;entryDy=0;strokeColor=#00CC00;align=center;verticalAlign=middle;fontFamily=Helvetica;fontSize=11;fontColor=default;labelBackgroundColor=default;endArrow=none;endFill=0;" parent="Ru3RgFExYkWAiuwz_G7w-194" source="Ru3RgFExYkWAiuwz_G7w-96" target="Ru3RgFExYkWAiuwz_G7w-86" edge="1">
          <mxGeometry relative="1" as="geometry">
            <Array as="points">
              <mxPoint x="170" y="290" />
              <mxPoint x="190" y="290" />
              <mxPoint x="190" y="150" />
              <mxPoint x="170" y="150" />
            </Array>
          </mxGeometry>
        </mxCell>
        <mxCell id="Ru3RgFExYkWAiuwz_G7w-96" value="SG&amp;amp;0xE0&lt;div&gt;=&amp;gt;SG&lt;/div&gt;" style="rounded=0;whiteSpace=wrap;html=1;strokeColor=#00FFFF;" parent="Ru3RgFExYkWAiuwz_G7w-194" vertex="1">
          <mxGeometry x="140.1400000000001" y="300" width="40" height="50" as="geometry" />
        </mxCell>
        <mxCell id="Ru3RgFExYkWAiuwz_G7w-97" style="edgeStyle=orthogonalEdgeStyle;rounded=0;orthogonalLoop=1;jettySize=auto;html=1;exitX=0.25;exitY=1;exitDx=0;exitDy=0;strokeColor=#FF0000;align=center;verticalAlign=middle;fontFamily=Helvetica;fontSize=11;fontColor=default;labelBackgroundColor=default;endArrow=none;endFill=0;" parent="Ru3RgFExYkWAiuwz_G7w-194" source="Ru3RgFExYkWAiuwz_G7w-99" edge="1">
          <mxGeometry relative="1" as="geometry">
            <mxPoint x="130" y="430" as="targetPoint" />
            <Array as="points">
              <mxPoint x="150" y="430" />
            </Array>
          </mxGeometry>
        </mxCell>
        <mxCell id="Ru3RgFExYkWAiuwz_G7w-98" style="edgeStyle=orthogonalEdgeStyle;rounded=0;orthogonalLoop=1;jettySize=auto;html=1;exitX=0.25;exitY=0;exitDx=0;exitDy=0;entryX=0.25;entryY=1;entryDx=0;entryDy=0;strokeColor=#FF0000;align=center;verticalAlign=middle;fontFamily=Helvetica;fontSize=11;fontColor=default;labelBackgroundColor=default;endArrow=classic;" parent="Ru3RgFExYkWAiuwz_G7w-194" source="Ru3RgFExYkWAiuwz_G7w-99" target="Ru3RgFExYkWAiuwz_G7w-96" edge="1">
          <mxGeometry relative="1" as="geometry" />
        </mxCell>
        <mxCell id="Ru3RgFExYkWAiuwz_G7w-99" value="A&amp;gt;&amp;gt;21&lt;br&gt;=&amp;gt;SG" style="rounded=0;whiteSpace=wrap;html=1;strokeColor=#00FFFF;" parent="Ru3RgFExYkWAiuwz_G7w-194" vertex="1">
          <mxGeometry x="140.1400000000001" y="370" width="40" height="50" as="geometry" />
        </mxCell>
        <mxCell id="Ru3RgFExYkWAiuwz_G7w-100" style="edgeStyle=orthogonalEdgeStyle;rounded=0;orthogonalLoop=1;jettySize=auto;html=1;exitX=0.75;exitY=0;exitDx=0;exitDy=0;entryX=0.75;entryY=0;entryDx=0;entryDy=0;strokeColor=#00CC00;align=center;verticalAlign=middle;fontFamily=Helvetica;fontSize=11;fontColor=default;labelBackgroundColor=default;endArrow=none;endFill=0;" parent="Ru3RgFExYkWAiuwz_G7w-194" source="Ru3RgFExYkWAiuwz_G7w-101" target="Ru3RgFExYkWAiuwz_G7w-96" edge="1">
          <mxGeometry relative="1" as="geometry">
            <Array as="points">
              <mxPoint x="170" y="430" />
              <mxPoint x="190" y="430" />
              <mxPoint x="190" y="290" />
              <mxPoint x="170" y="290" />
            </Array>
          </mxGeometry>
        </mxCell>
        <mxCell id="Ru3RgFExYkWAiuwz_G7w-101" value="SB&amp;amp;0xC0&lt;br&gt;=&amp;gt;SB" style="rounded=0;whiteSpace=wrap;html=1;strokeColor=#00FFFF;" parent="Ru3RgFExYkWAiuwz_G7w-194" vertex="1">
          <mxGeometry x="140" y="440" width="40.07" height="50" as="geometry" />
        </mxCell>
        <mxCell id="Ru3RgFExYkWAiuwz_G7w-102" style="edgeStyle=orthogonalEdgeStyle;rounded=0;orthogonalLoop=1;jettySize=auto;html=1;exitX=0.25;exitY=1;exitDx=0;exitDy=0;strokeColor=#FF0000;align=center;verticalAlign=middle;fontFamily=Helvetica;fontSize=11;fontColor=default;labelBackgroundColor=default;endArrow=none;endFill=0;" parent="Ru3RgFExYkWAiuwz_G7w-194" source="Ru3RgFExYkWAiuwz_G7w-104" edge="1">
          <mxGeometry relative="1" as="geometry">
            <mxPoint x="130" y="570" as="targetPoint" />
            <Array as="points">
              <mxPoint x="150" y="570" />
            </Array>
          </mxGeometry>
        </mxCell>
        <mxCell id="Ru3RgFExYkWAiuwz_G7w-103" style="edgeStyle=orthogonalEdgeStyle;rounded=0;orthogonalLoop=1;jettySize=auto;html=1;exitX=0.25;exitY=0;exitDx=0;exitDy=0;entryX=0.25;entryY=1;entryDx=0;entryDy=0;strokeColor=#FF0000;align=center;verticalAlign=middle;fontFamily=Helvetica;fontSize=11;fontColor=default;labelBackgroundColor=default;endArrow=classic;" parent="Ru3RgFExYkWAiuwz_G7w-194" source="Ru3RgFExYkWAiuwz_G7w-104" target="Ru3RgFExYkWAiuwz_G7w-101" edge="1">
          <mxGeometry relative="1" as="geometry" />
        </mxCell>
        <mxCell id="Ru3RgFExYkWAiuwz_G7w-104" value="A&amp;gt;&amp;gt;18&lt;br&gt;=&amp;gt;SB" style="rounded=0;whiteSpace=wrap;html=1;strokeColor=#00FFFF;" parent="Ru3RgFExYkWAiuwz_G7w-194" vertex="1">
          <mxGeometry x="140.1400000000001" y="510" width="40" height="50" as="geometry" />
        </mxCell>
        <mxCell id="Ru3RgFExYkWAiuwz_G7w-110" style="edgeStyle=orthogonalEdgeStyle;rounded=0;orthogonalLoop=1;jettySize=auto;html=1;exitX=0.75;exitY=0;exitDx=0;exitDy=0;entryX=0.75;entryY=1;entryDx=0;entryDy=0;strokeColor=#00CC00;" parent="Ru3RgFExYkWAiuwz_G7w-194" source="Ru3RgFExYkWAiuwz_G7w-111" target="Ru3RgFExYkWAiuwz_G7w-118" edge="1">
          <mxGeometry relative="1" as="geometry" />
        </mxCell>
        <mxCell id="Ru3RgFExYkWAiuwz_G7w-111" value="SR&amp;amp;0xE0&lt;br&gt;=&amp;gt;SR" style="rounded=0;whiteSpace=wrap;html=1;strokeColor=#00FFFF;" parent="Ru3RgFExYkWAiuwz_G7w-194" vertex="1">
          <mxGeometry x="140.14" y="720" width="40" height="50" as="geometry" />
        </mxCell>
        <mxCell id="Ru3RgFExYkWAiuwz_G7w-112" style="edgeStyle=orthogonalEdgeStyle;rounded=0;orthogonalLoop=1;jettySize=auto;html=1;exitX=0.25;exitY=0;exitDx=0;exitDy=0;entryX=0.25;entryY=1;entryDx=0;entryDy=0;strokeColor=#FF0000;align=center;verticalAlign=middle;fontFamily=Helvetica;fontSize=11;fontColor=default;labelBackgroundColor=default;endArrow=classic;" parent="Ru3RgFExYkWAiuwz_G7w-194" source="Ru3RgFExYkWAiuwz_G7w-114" target="Ru3RgFExYkWAiuwz_G7w-111" edge="1">
          <mxGeometry relative="1" as="geometry" />
        </mxCell>
        <mxCell id="Ru3RgFExYkWAiuwz_G7w-113" style="edgeStyle=orthogonalEdgeStyle;rounded=0;orthogonalLoop=1;jettySize=auto;html=1;exitX=0.25;exitY=1;exitDx=0;exitDy=0;strokeColor=#FF0000;align=center;verticalAlign=middle;fontFamily=Helvetica;fontSize=11;fontColor=default;labelBackgroundColor=default;endArrow=none;endFill=0;" parent="Ru3RgFExYkWAiuwz_G7w-194" source="Ru3RgFExYkWAiuwz_G7w-114" edge="1">
          <mxGeometry relative="1" as="geometry">
            <mxPoint x="129.9999999999999" y="850" as="targetPoint" />
            <Array as="points">
              <mxPoint x="150" y="850" />
            </Array>
          </mxGeometry>
        </mxCell>
        <mxCell id="Ru3RgFExYkWAiuwz_G7w-114" value="A&amp;gt;&amp;gt;16&lt;br&gt;=&amp;gt;SR" style="rounded=0;whiteSpace=wrap;html=1;strokeColor=#00FFFF;" parent="Ru3RgFExYkWAiuwz_G7w-194" vertex="1">
          <mxGeometry x="140.14" y="790" width="40" height="50" as="geometry" />
        </mxCell>
        <mxCell id="Ru3RgFExYkWAiuwz_G7w-116" value="EACH/0xE0&lt;div&gt;=&amp;gt;EACH&lt;/div&gt;" style="rounded=0;whiteSpace=wrap;html=1;strokeColor=#00FFFF;" parent="Ru3RgFExYkWAiuwz_G7w-194" vertex="1">
          <mxGeometry x="140.14" y="580" width="40" height="50" as="geometry" />
        </mxCell>
        <mxCell id="Ru3RgFExYkWAiuwz_G7w-117" style="edgeStyle=orthogonalEdgeStyle;rounded=0;orthogonalLoop=1;jettySize=auto;html=1;exitX=0.75;exitY=0;exitDx=0;exitDy=0;entryX=0.75;entryY=1;entryDx=0;entryDy=0;strokeColor=#00CC00;align=center;verticalAlign=middle;fontFamily=Helvetica;fontSize=11;fontColor=default;labelBackgroundColor=default;endArrow=classic;" parent="Ru3RgFExYkWAiuwz_G7w-194" source="Ru3RgFExYkWAiuwz_G7w-118" target="Ru3RgFExYkWAiuwz_G7w-116" edge="1">
          <mxGeometry relative="1" as="geometry" />
        </mxCell>
        <mxCell id="Ru3RgFExYkWAiuwz_G7w-118" value="EACH*0xFF&lt;br&gt;=&amp;gt;&lt;span style=&quot;background-color: initial;&quot;&gt;EACH&lt;/span&gt;" style="rounded=0;whiteSpace=wrap;html=1;strokeColor=#00FFFF;" parent="Ru3RgFExYkWAiuwz_G7w-194" vertex="1">
          <mxGeometry x="140.14" y="650" width="40" height="50" as="geometry" />
        </mxCell>
        <mxCell id="Ru3RgFExYkWAiuwz_G7w-119" style="edgeStyle=orthogonalEdgeStyle;rounded=0;orthogonalLoop=1;jettySize=auto;html=1;exitX=0.75;exitY=0;exitDx=0;exitDy=0;entryX=0.75;entryY=0;entryDx=0;entryDy=0;strokeColor=#00CC00;align=center;verticalAlign=middle;fontFamily=Helvetica;fontSize=11;fontColor=default;labelBackgroundColor=default;endArrow=none;endFill=0;" parent="Ru3RgFExYkWAiuwz_G7w-194" source="Ru3RgFExYkWAiuwz_G7w-120" target="Ru3RgFExYkWAiuwz_G7w-111" edge="1">
          <mxGeometry relative="1" as="geometry">
            <Array as="points">
              <mxPoint x="170.14" y="850" />
              <mxPoint x="190.14" y="850" />
              <mxPoint x="190.14" y="710" />
              <mxPoint x="170.14" y="710" />
            </Array>
          </mxGeometry>
        </mxCell>
        <mxCell id="Ru3RgFExYkWAiuwz_G7w-120" value="SG&amp;amp;0xE0&lt;div&gt;=&amp;gt;SG&lt;/div&gt;" style="rounded=0;whiteSpace=wrap;html=1;strokeColor=#00FFFF;" parent="Ru3RgFExYkWAiuwz_G7w-194" vertex="1">
          <mxGeometry x="140.27999999999997" y="860" width="40" height="50" as="geometry" />
        </mxCell>
        <mxCell id="Ru3RgFExYkWAiuwz_G7w-121" style="edgeStyle=orthogonalEdgeStyle;rounded=0;orthogonalLoop=1;jettySize=auto;html=1;exitX=0.25;exitY=0;exitDx=0;exitDy=0;entryX=0.25;entryY=1;entryDx=0;entryDy=0;strokeColor=#FF0000;align=center;verticalAlign=middle;fontFamily=Helvetica;fontSize=11;fontColor=default;labelBackgroundColor=default;endArrow=classic;" parent="Ru3RgFExYkWAiuwz_G7w-194" source="Ru3RgFExYkWAiuwz_G7w-123" target="Ru3RgFExYkWAiuwz_G7w-120" edge="1">
          <mxGeometry relative="1" as="geometry" />
        </mxCell>
        <mxCell id="Ru3RgFExYkWAiuwz_G7w-122" style="edgeStyle=orthogonalEdgeStyle;rounded=0;orthogonalLoop=1;jettySize=auto;html=1;exitX=0.25;exitY=1;exitDx=0;exitDy=0;strokeColor=#FF0000;align=center;verticalAlign=middle;fontFamily=Helvetica;fontSize=11;fontColor=default;labelBackgroundColor=default;endArrow=none;endFill=0;" parent="Ru3RgFExYkWAiuwz_G7w-194" source="Ru3RgFExYkWAiuwz_G7w-123" edge="1">
          <mxGeometry relative="1" as="geometry">
            <mxPoint x="129.9999999999999" y="990" as="targetPoint" />
            <Array as="points">
              <mxPoint x="150" y="990" />
            </Array>
          </mxGeometry>
        </mxCell>
        <mxCell id="Ru3RgFExYkWAiuwz_G7w-123" value="A&amp;gt;&amp;gt;13&lt;br&gt;=&amp;gt;SG" style="rounded=0;whiteSpace=wrap;html=1;strokeColor=#00FFFF;" parent="Ru3RgFExYkWAiuwz_G7w-194" vertex="1">
          <mxGeometry x="140.27999999999997" y="930" width="40" height="50" as="geometry" />
        </mxCell>
        <mxCell id="Ru3RgFExYkWAiuwz_G7w-124" style="edgeStyle=orthogonalEdgeStyle;rounded=0;orthogonalLoop=1;jettySize=auto;html=1;exitX=0.75;exitY=0;exitDx=0;exitDy=0;entryX=0.75;entryY=0;entryDx=0;entryDy=0;strokeColor=#00CC00;align=center;verticalAlign=middle;fontFamily=Helvetica;fontSize=11;fontColor=default;labelBackgroundColor=default;endArrow=none;endFill=0;" parent="Ru3RgFExYkWAiuwz_G7w-194" source="Ru3RgFExYkWAiuwz_G7w-125" target="Ru3RgFExYkWAiuwz_G7w-120" edge="1">
          <mxGeometry relative="1" as="geometry">
            <Array as="points">
              <mxPoint x="170.14" y="990" />
              <mxPoint x="190.14" y="990" />
              <mxPoint x="190.14" y="850" />
              <mxPoint x="170.14" y="850" />
            </Array>
          </mxGeometry>
        </mxCell>
        <mxCell id="Ru3RgFExYkWAiuwz_G7w-125" value="SB&amp;amp;0xC0&lt;br&gt;=&amp;gt;SB" style="rounded=0;whiteSpace=wrap;html=1;strokeColor=#00FFFF;" parent="Ru3RgFExYkWAiuwz_G7w-194" vertex="1">
          <mxGeometry x="140.13999999999987" y="1000" width="40.07" height="50" as="geometry" />
        </mxCell>
        <mxCell id="Ru3RgFExYkWAiuwz_G7w-126" style="edgeStyle=orthogonalEdgeStyle;rounded=0;orthogonalLoop=1;jettySize=auto;html=1;exitX=0.25;exitY=0;exitDx=0;exitDy=0;entryX=0.25;entryY=1;entryDx=0;entryDy=0;strokeColor=#FF0000;align=center;verticalAlign=middle;fontFamily=Helvetica;fontSize=11;fontColor=default;labelBackgroundColor=default;endArrow=classic;" parent="Ru3RgFExYkWAiuwz_G7w-194" source="Ru3RgFExYkWAiuwz_G7w-128" target="Ru3RgFExYkWAiuwz_G7w-125" edge="1">
          <mxGeometry relative="1" as="geometry" />
        </mxCell>
        <mxCell id="Ru3RgFExYkWAiuwz_G7w-127" style="edgeStyle=orthogonalEdgeStyle;rounded=0;orthogonalLoop=1;jettySize=auto;html=1;exitX=0.25;exitY=1;exitDx=0;exitDy=0;strokeColor=#FF0000;align=center;verticalAlign=middle;fontFamily=Helvetica;fontSize=11;fontColor=default;labelBackgroundColor=default;endArrow=none;endFill=0;" parent="Ru3RgFExYkWAiuwz_G7w-194" source="Ru3RgFExYkWAiuwz_G7w-128" edge="1">
          <mxGeometry relative="1" as="geometry">
            <mxPoint x="129.9999999999999" y="1130" as="targetPoint" />
            <Array as="points">
              <mxPoint x="150" y="1130" />
            </Array>
          </mxGeometry>
        </mxCell>
        <mxCell id="Ru3RgFExYkWAiuwz_G7w-128" value="A&amp;gt;&amp;gt;10&lt;br&gt;=&amp;gt;SB" style="rounded=0;whiteSpace=wrap;html=1;strokeColor=#00FFFF;" parent="Ru3RgFExYkWAiuwz_G7w-194" vertex="1">
          <mxGeometry x="140.27999999999997" y="1070" width="40" height="50" as="geometry" />
        </mxCell>
        <mxCell id="Ru3RgFExYkWAiuwz_G7w-129" style="edgeStyle=orthogonalEdgeStyle;rounded=0;orthogonalLoop=1;jettySize=auto;html=1;exitX=0.75;exitY=0;exitDx=0;exitDy=0;entryX=0.75;entryY=1;entryDx=0;entryDy=0;strokeColor=#00CC00;" parent="Ru3RgFExYkWAiuwz_G7w-194" source="Ru3RgFExYkWAiuwz_G7w-130" target="Ru3RgFExYkWAiuwz_G7w-137" edge="1">
          <mxGeometry relative="1" as="geometry" />
        </mxCell>
        <mxCell id="Ru3RgFExYkWAiuwz_G7w-130" value="SR&amp;amp;0xE0&lt;br&gt;=&amp;gt;SR" style="rounded=0;whiteSpace=wrap;html=1;strokeColor=#00FFFF;" parent="Ru3RgFExYkWAiuwz_G7w-194" vertex="1">
          <mxGeometry x="140.27999999999997" y="1280" width="40" height="50" as="geometry" />
        </mxCell>
        <mxCell id="Ru3RgFExYkWAiuwz_G7w-131" style="edgeStyle=orthogonalEdgeStyle;rounded=0;orthogonalLoop=1;jettySize=auto;html=1;exitX=0.25;exitY=0;exitDx=0;exitDy=0;entryX=0.25;entryY=1;entryDx=0;entryDy=0;strokeColor=#FF0000;align=center;verticalAlign=middle;fontFamily=Helvetica;fontSize=11;fontColor=default;labelBackgroundColor=default;endArrow=classic;" parent="Ru3RgFExYkWAiuwz_G7w-194" source="Ru3RgFExYkWAiuwz_G7w-133" target="Ru3RgFExYkWAiuwz_G7w-130" edge="1">
          <mxGeometry relative="1" as="geometry" />
        </mxCell>
        <mxCell id="Ru3RgFExYkWAiuwz_G7w-132" style="edgeStyle=orthogonalEdgeStyle;rounded=0;orthogonalLoop=1;jettySize=auto;html=1;exitX=0.25;exitY=1;exitDx=0;exitDy=0;strokeColor=#FF0000;align=center;verticalAlign=middle;fontFamily=Helvetica;fontSize=11;fontColor=default;labelBackgroundColor=default;endArrow=none;endFill=0;" parent="Ru3RgFExYkWAiuwz_G7w-194" source="Ru3RgFExYkWAiuwz_G7w-133" edge="1">
          <mxGeometry relative="1" as="geometry">
            <mxPoint x="129.9999999999999" y="1410" as="targetPoint" />
            <Array as="points">
              <mxPoint x="150" y="1410" />
            </Array>
          </mxGeometry>
        </mxCell>
        <mxCell id="Ru3RgFExYkWAiuwz_G7w-133" value="A&amp;gt;&amp;gt;8&lt;br&gt;=&amp;gt;SR" style="rounded=0;whiteSpace=wrap;html=1;strokeColor=#00FFFF;" parent="Ru3RgFExYkWAiuwz_G7w-194" vertex="1">
          <mxGeometry x="140.27999999999997" y="1350" width="40" height="50" as="geometry" />
        </mxCell>
        <mxCell id="Ru3RgFExYkWAiuwz_G7w-135" value="EACH/0xE0&lt;div&gt;=&amp;gt;EACH&lt;/div&gt;" style="rounded=0;whiteSpace=wrap;html=1;strokeColor=#00FFFF;" parent="Ru3RgFExYkWAiuwz_G7w-194" vertex="1">
          <mxGeometry x="140.27999999999997" y="1140" width="40" height="50" as="geometry" />
        </mxCell>
        <mxCell id="Ru3RgFExYkWAiuwz_G7w-136" style="edgeStyle=orthogonalEdgeStyle;rounded=0;orthogonalLoop=1;jettySize=auto;html=1;exitX=0.75;exitY=0;exitDx=0;exitDy=0;entryX=0.75;entryY=1;entryDx=0;entryDy=0;strokeColor=#00CC00;align=center;verticalAlign=middle;fontFamily=Helvetica;fontSize=11;fontColor=default;labelBackgroundColor=default;endArrow=classic;" parent="Ru3RgFExYkWAiuwz_G7w-194" source="Ru3RgFExYkWAiuwz_G7w-137" target="Ru3RgFExYkWAiuwz_G7w-135" edge="1">
          <mxGeometry relative="1" as="geometry" />
        </mxCell>
        <mxCell id="Ru3RgFExYkWAiuwz_G7w-137" value="EACH*0xFF&lt;br&gt;=&amp;gt;&lt;span style=&quot;background-color: initial;&quot;&gt;EACH&lt;/span&gt;" style="rounded=0;whiteSpace=wrap;html=1;strokeColor=#00FFFF;" parent="Ru3RgFExYkWAiuwz_G7w-194" vertex="1">
          <mxGeometry x="140.27999999999997" y="1210" width="40" height="50" as="geometry" />
        </mxCell>
        <mxCell id="Ru3RgFExYkWAiuwz_G7w-138" style="edgeStyle=orthogonalEdgeStyle;rounded=0;orthogonalLoop=1;jettySize=auto;html=1;exitX=0.75;exitY=0;exitDx=0;exitDy=0;entryX=0.75;entryY=0;entryDx=0;entryDy=0;strokeColor=#00CC00;align=center;verticalAlign=middle;fontFamily=Helvetica;fontSize=11;fontColor=default;labelBackgroundColor=default;endArrow=none;endFill=0;" parent="Ru3RgFExYkWAiuwz_G7w-194" source="Ru3RgFExYkWAiuwz_G7w-139" target="Ru3RgFExYkWAiuwz_G7w-130" edge="1">
          <mxGeometry relative="1" as="geometry">
            <Array as="points">
              <mxPoint x="170.27999999999997" y="1410" />
              <mxPoint x="190.27999999999997" y="1410" />
              <mxPoint x="190.27999999999997" y="1270" />
              <mxPoint x="170.27999999999997" y="1270" />
            </Array>
          </mxGeometry>
        </mxCell>
        <mxCell id="Ru3RgFExYkWAiuwz_G7w-139" value="SG&amp;amp;0xE0&lt;div&gt;=&amp;gt;SG&lt;/div&gt;" style="rounded=0;whiteSpace=wrap;html=1;strokeColor=#00FFFF;" parent="Ru3RgFExYkWAiuwz_G7w-194" vertex="1">
          <mxGeometry x="140.42000000000007" y="1420" width="40" height="50" as="geometry" />
        </mxCell>
        <mxCell id="Ru3RgFExYkWAiuwz_G7w-140" style="edgeStyle=orthogonalEdgeStyle;rounded=0;orthogonalLoop=1;jettySize=auto;html=1;exitX=0.25;exitY=0;exitDx=0;exitDy=0;entryX=0.25;entryY=1;entryDx=0;entryDy=0;strokeColor=#FF0000;align=center;verticalAlign=middle;fontFamily=Helvetica;fontSize=11;fontColor=default;labelBackgroundColor=default;endArrow=classic;" parent="Ru3RgFExYkWAiuwz_G7w-194" source="Ru3RgFExYkWAiuwz_G7w-142" target="Ru3RgFExYkWAiuwz_G7w-139" edge="1">
          <mxGeometry relative="1" as="geometry" />
        </mxCell>
        <mxCell id="Ru3RgFExYkWAiuwz_G7w-141" style="edgeStyle=orthogonalEdgeStyle;rounded=0;orthogonalLoop=1;jettySize=auto;html=1;exitX=0.25;exitY=1;exitDx=0;exitDy=0;strokeColor=#FF0000;align=center;verticalAlign=middle;fontFamily=Helvetica;fontSize=11;fontColor=default;labelBackgroundColor=default;endArrow=none;endFill=0;" parent="Ru3RgFExYkWAiuwz_G7w-194" source="Ru3RgFExYkWAiuwz_G7w-142" edge="1">
          <mxGeometry relative="1" as="geometry">
            <mxPoint x="129.9999999999999" y="1550" as="targetPoint" />
            <Array as="points">
              <mxPoint x="150" y="1550" />
            </Array>
          </mxGeometry>
        </mxCell>
        <mxCell id="Ru3RgFExYkWAiuwz_G7w-142" value="A&amp;gt;&amp;gt;5&lt;br&gt;=&amp;gt;SG" style="rounded=0;whiteSpace=wrap;html=1;strokeColor=#00FFFF;" parent="Ru3RgFExYkWAiuwz_G7w-194" vertex="1">
          <mxGeometry x="140.42000000000007" y="1490" width="40" height="50" as="geometry" />
        </mxCell>
        <mxCell id="Ru3RgFExYkWAiuwz_G7w-143" style="edgeStyle=orthogonalEdgeStyle;rounded=0;orthogonalLoop=1;jettySize=auto;html=1;exitX=0.75;exitY=0;exitDx=0;exitDy=0;entryX=0.75;entryY=0;entryDx=0;entryDy=0;strokeColor=#00CC00;align=center;verticalAlign=middle;fontFamily=Helvetica;fontSize=11;fontColor=default;labelBackgroundColor=default;endArrow=none;endFill=0;" parent="Ru3RgFExYkWAiuwz_G7w-194" source="Ru3RgFExYkWAiuwz_G7w-144" target="Ru3RgFExYkWAiuwz_G7w-139" edge="1">
          <mxGeometry relative="1" as="geometry">
            <Array as="points">
              <mxPoint x="170.27999999999997" y="1550" />
              <mxPoint x="190.27999999999997" y="1550" />
              <mxPoint x="190.27999999999997" y="1410" />
              <mxPoint x="170.27999999999997" y="1410" />
            </Array>
          </mxGeometry>
        </mxCell>
        <mxCell id="Ru3RgFExYkWAiuwz_G7w-144" value="SB&amp;amp;0xC0&lt;br&gt;=&amp;gt;SB" style="rounded=0;whiteSpace=wrap;html=1;strokeColor=#00FFFF;" parent="Ru3RgFExYkWAiuwz_G7w-194" vertex="1">
          <mxGeometry x="140.27999999999997" y="1560" width="40.07" height="50" as="geometry" />
        </mxCell>
        <mxCell id="Ru3RgFExYkWAiuwz_G7w-145" style="edgeStyle=orthogonalEdgeStyle;rounded=0;orthogonalLoop=1;jettySize=auto;html=1;exitX=0.25;exitY=0;exitDx=0;exitDy=0;entryX=0.25;entryY=1;entryDx=0;entryDy=0;strokeColor=#FF0000;align=center;verticalAlign=middle;fontFamily=Helvetica;fontSize=11;fontColor=default;labelBackgroundColor=default;endArrow=classic;" parent="Ru3RgFExYkWAiuwz_G7w-194" source="Ru3RgFExYkWAiuwz_G7w-147" target="Ru3RgFExYkWAiuwz_G7w-144" edge="1">
          <mxGeometry relative="1" as="geometry" />
        </mxCell>
        <mxCell id="Ru3RgFExYkWAiuwz_G7w-146" style="edgeStyle=orthogonalEdgeStyle;rounded=0;orthogonalLoop=1;jettySize=auto;html=1;exitX=0.25;exitY=1;exitDx=0;exitDy=0;strokeColor=#FF0000;align=center;verticalAlign=middle;fontFamily=Helvetica;fontSize=11;fontColor=default;labelBackgroundColor=default;endArrow=none;endFill=0;" parent="Ru3RgFExYkWAiuwz_G7w-194" source="Ru3RgFExYkWAiuwz_G7w-147" edge="1">
          <mxGeometry relative="1" as="geometry">
            <mxPoint x="129.9999999999999" y="1690" as="targetPoint" />
            <Array as="points">
              <mxPoint x="150" y="1690" />
            </Array>
          </mxGeometry>
        </mxCell>
        <mxCell id="Ru3RgFExYkWAiuwz_G7w-147" value="A&amp;gt;&amp;gt;2&lt;br&gt;=&amp;gt;SB" style="rounded=0;whiteSpace=wrap;html=1;strokeColor=#00FFFF;" parent="Ru3RgFExYkWAiuwz_G7w-194" vertex="1">
          <mxGeometry x="140.42000000000007" y="1630" width="40" height="50" as="geometry" />
        </mxCell>
        <mxCell id="Ru3RgFExYkWAiuwz_G7w-148" style="edgeStyle=orthogonalEdgeStyle;rounded=0;orthogonalLoop=1;jettySize=auto;html=1;exitX=0.75;exitY=0;exitDx=0;exitDy=0;entryX=0.75;entryY=1;entryDx=0;entryDy=0;strokeColor=#00CC00;" parent="Ru3RgFExYkWAiuwz_G7w-194" source="Ru3RgFExYkWAiuwz_G7w-149" target="Ru3RgFExYkWAiuwz_G7w-156" edge="1">
          <mxGeometry relative="1" as="geometry" />
        </mxCell>
        <mxCell id="Ru3RgFExYkWAiuwz_G7w-149" value="SR&amp;amp;0xE0&lt;br&gt;=&amp;gt;SR" style="rounded=0;whiteSpace=wrap;html=1;strokeColor=#00FFFF;" parent="Ru3RgFExYkWAiuwz_G7w-194" vertex="1">
          <mxGeometry x="140.41999999999996" y="1840" width="40" height="50" as="geometry" />
        </mxCell>
        <mxCell id="Ru3RgFExYkWAiuwz_G7w-150" style="edgeStyle=orthogonalEdgeStyle;rounded=0;orthogonalLoop=1;jettySize=auto;html=1;exitX=0.25;exitY=0;exitDx=0;exitDy=0;entryX=0.25;entryY=1;entryDx=0;entryDy=0;strokeColor=#FF0000;align=center;verticalAlign=middle;fontFamily=Helvetica;fontSize=11;fontColor=default;labelBackgroundColor=default;endArrow=classic;" parent="Ru3RgFExYkWAiuwz_G7w-194" source="Ru3RgFExYkWAiuwz_G7w-152" target="Ru3RgFExYkWAiuwz_G7w-149" edge="1">
          <mxGeometry relative="1" as="geometry" />
        </mxCell>
        <mxCell id="Ru3RgFExYkWAiuwz_G7w-151" style="edgeStyle=orthogonalEdgeStyle;rounded=0;orthogonalLoop=1;jettySize=auto;html=1;exitX=0.25;exitY=1;exitDx=0;exitDy=0;strokeColor=#FF0000;align=center;verticalAlign=middle;fontFamily=Helvetica;fontSize=11;fontColor=default;labelBackgroundColor=default;endArrow=none;endFill=0;" parent="Ru3RgFExYkWAiuwz_G7w-194" source="Ru3RgFExYkWAiuwz_G7w-152" edge="1">
          <mxGeometry relative="1" as="geometry">
            <mxPoint x="129.9999999999999" y="1970" as="targetPoint" />
            <Array as="points">
              <mxPoint x="150" y="1970" />
            </Array>
          </mxGeometry>
        </mxCell>
        <mxCell id="Ru3RgFExYkWAiuwz_G7w-152" value="A&amp;lt;&amp;lt;0&lt;br&gt;=&amp;gt;SR" style="rounded=0;whiteSpace=wrap;html=1;strokeColor=#00FFFF;" parent="Ru3RgFExYkWAiuwz_G7w-194" vertex="1">
          <mxGeometry x="140.41999999999996" y="1910" width="40" height="50" as="geometry" />
        </mxCell>
        <mxCell id="Ru3RgFExYkWAiuwz_G7w-154" value="EACH/0xE0&lt;div&gt;=&amp;gt;EACH&lt;/div&gt;" style="rounded=0;whiteSpace=wrap;html=1;strokeColor=#00FFFF;" parent="Ru3RgFExYkWAiuwz_G7w-194" vertex="1">
          <mxGeometry x="140.41999999999996" y="1700" width="40" height="50" as="geometry" />
        </mxCell>
        <mxCell id="Ru3RgFExYkWAiuwz_G7w-155" style="edgeStyle=orthogonalEdgeStyle;rounded=0;orthogonalLoop=1;jettySize=auto;html=1;exitX=0.75;exitY=0;exitDx=0;exitDy=0;entryX=0.75;entryY=1;entryDx=0;entryDy=0;strokeColor=#00CC00;align=center;verticalAlign=middle;fontFamily=Helvetica;fontSize=11;fontColor=default;labelBackgroundColor=default;endArrow=classic;" parent="Ru3RgFExYkWAiuwz_G7w-194" source="Ru3RgFExYkWAiuwz_G7w-156" target="Ru3RgFExYkWAiuwz_G7w-154" edge="1">
          <mxGeometry relative="1" as="geometry" />
        </mxCell>
        <mxCell id="Ru3RgFExYkWAiuwz_G7w-156" value="EACH*0xFF&lt;br&gt;=&amp;gt;&lt;span style=&quot;background-color: initial;&quot;&gt;EACH&lt;/span&gt;" style="rounded=0;whiteSpace=wrap;html=1;strokeColor=#00FFFF;" parent="Ru3RgFExYkWAiuwz_G7w-194" vertex="1">
          <mxGeometry x="140.41999999999996" y="1770" width="40" height="50" as="geometry" />
        </mxCell>
        <mxCell id="Ru3RgFExYkWAiuwz_G7w-157" style="edgeStyle=orthogonalEdgeStyle;rounded=0;orthogonalLoop=1;jettySize=auto;html=1;exitX=0.75;exitY=0;exitDx=0;exitDy=0;entryX=0.75;entryY=0;entryDx=0;entryDy=0;strokeColor=#00CC00;align=center;verticalAlign=middle;fontFamily=Helvetica;fontSize=11;fontColor=default;labelBackgroundColor=default;endArrow=none;endFill=0;" parent="Ru3RgFExYkWAiuwz_G7w-194" source="Ru3RgFExYkWAiuwz_G7w-158" target="Ru3RgFExYkWAiuwz_G7w-149" edge="1">
          <mxGeometry relative="1" as="geometry">
            <Array as="points">
              <mxPoint x="170.41999999999996" y="1970" />
              <mxPoint x="190.41999999999996" y="1970" />
              <mxPoint x="190.41999999999996" y="1830" />
              <mxPoint x="170.41999999999996" y="1830" />
            </Array>
          </mxGeometry>
        </mxCell>
        <mxCell id="Ru3RgFExYkWAiuwz_G7w-158" value="SG&amp;amp;0xE0&lt;div&gt;=&amp;gt;SG&lt;/div&gt;" style="rounded=0;whiteSpace=wrap;html=1;strokeColor=#00FFFF;" parent="Ru3RgFExYkWAiuwz_G7w-194" vertex="1">
          <mxGeometry x="140.55999999999995" y="1980" width="40" height="50" as="geometry" />
        </mxCell>
        <mxCell id="Ru3RgFExYkWAiuwz_G7w-159" style="edgeStyle=orthogonalEdgeStyle;rounded=0;orthogonalLoop=1;jettySize=auto;html=1;exitX=0.25;exitY=0;exitDx=0;exitDy=0;entryX=0.25;entryY=1;entryDx=0;entryDy=0;strokeColor=#FF0000;align=center;verticalAlign=middle;fontFamily=Helvetica;fontSize=11;fontColor=default;labelBackgroundColor=default;endArrow=classic;" parent="Ru3RgFExYkWAiuwz_G7w-194" source="Ru3RgFExYkWAiuwz_G7w-161" target="Ru3RgFExYkWAiuwz_G7w-158" edge="1">
          <mxGeometry relative="1" as="geometry" />
        </mxCell>
        <mxCell id="Ru3RgFExYkWAiuwz_G7w-160" style="edgeStyle=orthogonalEdgeStyle;rounded=0;orthogonalLoop=1;jettySize=auto;html=1;exitX=0.25;exitY=1;exitDx=0;exitDy=0;strokeColor=#FF0000;align=center;verticalAlign=middle;fontFamily=Helvetica;fontSize=11;fontColor=default;labelBackgroundColor=default;endArrow=none;endFill=0;" parent="Ru3RgFExYkWAiuwz_G7w-194" source="Ru3RgFExYkWAiuwz_G7w-161" edge="1">
          <mxGeometry relative="1" as="geometry">
            <mxPoint x="129.9999999999999" y="2110" as="targetPoint" />
            <Array as="points">
              <mxPoint x="151" y="2110" />
            </Array>
          </mxGeometry>
        </mxCell>
        <mxCell id="Ru3RgFExYkWAiuwz_G7w-161" value="A&amp;lt;&amp;lt;3&lt;br&gt;=&amp;gt;SG" style="rounded=0;whiteSpace=wrap;html=1;strokeColor=#00FFFF;" parent="Ru3RgFExYkWAiuwz_G7w-194" vertex="1">
          <mxGeometry x="140.55999999999995" y="2050" width="40" height="50" as="geometry" />
        </mxCell>
        <mxCell id="Ru3RgFExYkWAiuwz_G7w-162" style="edgeStyle=orthogonalEdgeStyle;rounded=0;orthogonalLoop=1;jettySize=auto;html=1;exitX=0.75;exitY=0;exitDx=0;exitDy=0;entryX=0.75;entryY=0;entryDx=0;entryDy=0;strokeColor=#00CC00;align=center;verticalAlign=middle;fontFamily=Helvetica;fontSize=11;fontColor=default;labelBackgroundColor=default;endArrow=none;endFill=0;" parent="Ru3RgFExYkWAiuwz_G7w-194" source="Ru3RgFExYkWAiuwz_G7w-163" target="Ru3RgFExYkWAiuwz_G7w-158" edge="1">
          <mxGeometry relative="1" as="geometry">
            <Array as="points">
              <mxPoint x="170.41999999999996" y="2110" />
              <mxPoint x="190.41999999999996" y="2110" />
              <mxPoint x="190.41999999999996" y="1970" />
              <mxPoint x="170.41999999999996" y="1970" />
            </Array>
          </mxGeometry>
        </mxCell>
        <mxCell id="Ru3RgFExYkWAiuwz_G7w-163" value="SB&amp;amp;0xC0&lt;br&gt;=&amp;gt;SB" style="rounded=0;whiteSpace=wrap;html=1;strokeColor=#00FFFF;" parent="Ru3RgFExYkWAiuwz_G7w-194" vertex="1">
          <mxGeometry x="140.41999999999985" y="2120" width="40.07" height="50" as="geometry" />
        </mxCell>
        <mxCell id="Ru3RgFExYkWAiuwz_G7w-164" style="edgeStyle=orthogonalEdgeStyle;rounded=0;orthogonalLoop=1;jettySize=auto;html=1;exitX=0.25;exitY=0;exitDx=0;exitDy=0;entryX=0.25;entryY=1;entryDx=0;entryDy=0;strokeColor=#FF0000;align=center;verticalAlign=middle;fontFamily=Helvetica;fontSize=11;fontColor=default;labelBackgroundColor=default;endArrow=classic;" parent="Ru3RgFExYkWAiuwz_G7w-194" source="Ru3RgFExYkWAiuwz_G7w-166" target="Ru3RgFExYkWAiuwz_G7w-163" edge="1">
          <mxGeometry relative="1" as="geometry" />
        </mxCell>
        <mxCell id="Ru3RgFExYkWAiuwz_G7w-165" style="edgeStyle=orthogonalEdgeStyle;rounded=0;orthogonalLoop=1;jettySize=auto;html=1;exitX=0.25;exitY=1;exitDx=0;exitDy=0;strokeColor=#FF0000;align=center;verticalAlign=middle;fontFamily=Helvetica;fontSize=11;fontColor=default;labelBackgroundColor=default;endArrow=none;endFill=0;" parent="Ru3RgFExYkWAiuwz_G7w-194" source="Ru3RgFExYkWAiuwz_G7w-166" edge="1">
          <mxGeometry relative="1" as="geometry">
            <mxPoint x="129.9999999999999" y="2250" as="targetPoint" />
            <Array as="points">
              <mxPoint x="151" y="2250" />
            </Array>
          </mxGeometry>
        </mxCell>
        <mxCell id="Ru3RgFExYkWAiuwz_G7w-166" value="A&amp;lt;&amp;lt;6&lt;br&gt;=&amp;gt;SB" style="rounded=0;whiteSpace=wrap;html=1;strokeColor=#00FFFF;" parent="Ru3RgFExYkWAiuwz_G7w-194" vertex="1">
          <mxGeometry x="140.55999999999995" y="2190" width="40" height="50" as="geometry" />
        </mxCell>
        <mxCell id="Ru3RgFExYkWAiuwz_G7w-167" style="edgeStyle=orthogonalEdgeStyle;rounded=0;orthogonalLoop=1;jettySize=auto;html=1;exitX=0.75;exitY=0;exitDx=0;exitDy=0;entryX=0.75;entryY=1;entryDx=0;entryDy=0;strokeColor=#00CC00;" parent="Ru3RgFExYkWAiuwz_G7w-194" source="Ru3RgFExYkWAiuwz_G7w-169" target="Ru3RgFExYkWAiuwz_G7w-176" edge="1">
          <mxGeometry relative="1" as="geometry" />
        </mxCell>
        <mxCell id="Ru3RgFExYkWAiuwz_G7w-168" style="edgeStyle=orthogonalEdgeStyle;rounded=0;orthogonalLoop=1;jettySize=auto;html=1;exitX=0.75;exitY=0;exitDx=0;exitDy=0;strokeColor=#00CC00;endArrow=none;endFill=0;" parent="Ru3RgFExYkWAiuwz_G7w-194" source="Ru3RgFExYkWAiuwz_G7w-169" edge="1">
          <mxGeometry relative="1" as="geometry">
            <mxPoint x="189.9999999999999" y="2430" as="targetPoint" />
            <Array as="points">
              <mxPoint x="171" y="2390" />
              <mxPoint x="190" y="2390" />
            </Array>
          </mxGeometry>
        </mxCell>
        <mxCell id="Ru3RgFExYkWAiuwz_G7w-169" value="SR&amp;amp;0xE0&lt;br&gt;=&amp;gt;SR" style="rounded=0;whiteSpace=wrap;html=1;strokeColor=#00FFFF;" parent="Ru3RgFExYkWAiuwz_G7w-194" vertex="1">
          <mxGeometry x="140.55999999999995" y="2400" width="40" height="50" as="geometry" />
        </mxCell>
        <mxCell id="Ru3RgFExYkWAiuwz_G7w-170" style="edgeStyle=orthogonalEdgeStyle;rounded=0;orthogonalLoop=1;jettySize=auto;html=1;exitX=0.25;exitY=0;exitDx=0;exitDy=0;entryX=0.25;entryY=1;entryDx=0;entryDy=0;strokeColor=#FF0000;align=center;verticalAlign=middle;fontFamily=Helvetica;fontSize=11;fontColor=default;labelBackgroundColor=default;endArrow=classic;" parent="Ru3RgFExYkWAiuwz_G7w-194" source="Ru3RgFExYkWAiuwz_G7w-172" target="Ru3RgFExYkWAiuwz_G7w-169" edge="1">
          <mxGeometry relative="1" as="geometry" />
        </mxCell>
        <mxCell id="Ru3RgFExYkWAiuwz_G7w-171" style="edgeStyle=orthogonalEdgeStyle;rounded=0;orthogonalLoop=1;jettySize=auto;html=1;exitX=0.25;exitY=1;exitDx=0;exitDy=0;strokeColor=#FF0000;align=center;verticalAlign=middle;fontFamily=Helvetica;fontSize=11;fontColor=default;labelBackgroundColor=default;endArrow=none;endFill=0;" parent="Ru3RgFExYkWAiuwz_G7w-194" source="Ru3RgFExYkWAiuwz_G7w-172" edge="1">
          <mxGeometry relative="1" as="geometry">
            <mxPoint x="129.9999999999999" y="2530" as="targetPoint" />
            <Array as="points">
              <mxPoint x="151" y="2530" />
            </Array>
          </mxGeometry>
        </mxCell>
        <mxCell id="Ru3RgFExYkWAiuwz_G7w-172" value="B&amp;gt;&amp;gt;24&lt;br&gt;=&amp;gt;SR" style="rounded=0;whiteSpace=wrap;html=1;strokeColor=#00FFFF;" parent="Ru3RgFExYkWAiuwz_G7w-194" vertex="1">
          <mxGeometry x="140.55999999999995" y="2470" width="40" height="50" as="geometry" />
        </mxCell>
        <mxCell id="Ru3RgFExYkWAiuwz_G7w-173" style="edgeStyle=orthogonalEdgeStyle;rounded=0;orthogonalLoop=1;jettySize=auto;html=1;exitX=0.75;exitY=0;exitDx=0;exitDy=0;strokeColor=#00CC00;align=center;verticalAlign=middle;fontFamily=Helvetica;fontSize=11;fontColor=default;labelBackgroundColor=default;endArrow=classic;" parent="Ru3RgFExYkWAiuwz_G7w-194" source="Ru3RgFExYkWAiuwz_G7w-174" edge="1">
          <mxGeometry relative="1" as="geometry">
            <mxPoint x="190" y="2230" as="targetPoint" />
            <Array as="points">
              <mxPoint x="171" y="2250" />
              <mxPoint x="190" y="2250" />
            </Array>
          </mxGeometry>
        </mxCell>
        <mxCell id="Ru3RgFExYkWAiuwz_G7w-174" value="EACH/0xE0&lt;div&gt;=&amp;gt;EACH&lt;/div&gt;" style="rounded=0;whiteSpace=wrap;html=1;strokeColor=#00FFFF;" parent="Ru3RgFExYkWAiuwz_G7w-194" vertex="1">
          <mxGeometry x="140.55999999999995" y="2260" width="40" height="50" as="geometry" />
        </mxCell>
        <mxCell id="Ru3RgFExYkWAiuwz_G7w-175" style="edgeStyle=orthogonalEdgeStyle;rounded=0;orthogonalLoop=1;jettySize=auto;html=1;exitX=0.75;exitY=0;exitDx=0;exitDy=0;entryX=0.75;entryY=1;entryDx=0;entryDy=0;strokeColor=#00CC00;align=center;verticalAlign=middle;fontFamily=Helvetica;fontSize=11;fontColor=default;labelBackgroundColor=default;endArrow=classic;" parent="Ru3RgFExYkWAiuwz_G7w-194" source="Ru3RgFExYkWAiuwz_G7w-176" target="Ru3RgFExYkWAiuwz_G7w-174" edge="1">
          <mxGeometry relative="1" as="geometry" />
        </mxCell>
        <mxCell id="Ru3RgFExYkWAiuwz_G7w-176" value="EACH*0xFF&lt;br&gt;=&amp;gt;&lt;span style=&quot;background-color: initial;&quot;&gt;EACH&lt;/span&gt;" style="rounded=0;whiteSpace=wrap;html=1;strokeColor=#00FFFF;" parent="Ru3RgFExYkWAiuwz_G7w-194" vertex="1">
          <mxGeometry x="140.55999999999995" y="2330" width="40" height="50" as="geometry" />
        </mxCell>
        <mxCell id="Ru3RgFExYkWAiuwz_G7w-178" value="" style="rounded=1;whiteSpace=wrap;html=1;fillColor=none;glass=0;shadow=0;arcSize=10;strokeColor=default;align=center;verticalAlign=middle;fontFamily=Helvetica;fontSize=12;fontColor=default;connectable=0;" parent="Ru3RgFExYkWAiuwz_G7w-194" vertex="1">
          <mxGeometry width="240" height="2580" as="geometry" />
        </mxCell>
        <mxCell id="Ru3RgFExYkWAiuwz_G7w-195" value="" style="group" parent="1" vertex="1" connectable="0">
          <mxGeometry x="390" y="770" width="422.75" height="160" as="geometry" />
        </mxCell>
        <mxCell id="HEp67iWyr1RidV_tDCYu-381" value="" style="rounded=0;whiteSpace=wrap;html=1;fillStyle=cross-hatch;fillColor=none;fontColor=#333333;strokeColor=default;strokeWidth=2;" parent="Ru3RgFExYkWAiuwz_G7w-195" vertex="1">
          <mxGeometry width="422.75" height="160" as="geometry" />
        </mxCell>
        <mxCell id="HEp67iWyr1RidV_tDCYu-382" value="常量&lt;br&gt;运算器" style="rounded=0;whiteSpace=wrap;html=1;strokeColor=#FF00FF;align=center;verticalAlign=middle;fontFamily=Helvetica;fontSize=12;fontColor=default;fillColor=default;" parent="Ru3RgFExYkWAiuwz_G7w-195" vertex="1">
          <mxGeometry x="32.74649214659689" y="40" width="80.73298429319372" height="20" as="geometry" />
        </mxCell>
        <mxCell id="HEp67iWyr1RidV_tDCYu-383" value="判断&lt;br&gt;运算器" style="rounded=0;whiteSpace=wrap;html=1;strokeColor=#0000FF;" parent="Ru3RgFExYkWAiuwz_G7w-195" vertex="1">
          <mxGeometry x="132.75" y="25" width="80.73298429319372" height="50" as="geometry" />
        </mxCell>
        <mxCell id="HEp67iWyr1RidV_tDCYu-384" value="灯" style="whiteSpace=wrap;html=1;aspect=fixed;strokeColor=#7F00FF;" parent="Ru3RgFExYkWAiuwz_G7w-195" vertex="1">
          <mxGeometry x="243.75" y="30" width="40" height="40" as="geometry" />
        </mxCell>
        <mxCell id="HEp67iWyr1RidV_tDCYu-385" value="算术&lt;br&gt;运算器" style="rounded=0;whiteSpace=wrap;html=1;strokeColor=#00FFFF;" parent="Ru3RgFExYkWAiuwz_G7w-195" vertex="1">
          <mxGeometry x="312.7464921465969" y="25" width="80.73298429319372" height="50" as="geometry" />
        </mxCell>
        <mxCell id="HEp67iWyr1RidV_tDCYu-386" value="" style="endArrow=classic;html=1;rounded=0;endFill=1;strokeColor=#FF0000;" parent="Ru3RgFExYkWAiuwz_G7w-195" edge="1">
          <mxGeometry width="50" height="50" relative="1" as="geometry">
            <mxPoint x="32.74764397905767" y="130" as="sourcePoint" />
            <mxPoint x="198.25026178010467" y="130" as="targetPoint" />
          </mxGeometry>
        </mxCell>
        <mxCell id="HEp67iWyr1RidV_tDCYu-387" value="&lt;font style=&quot;font-size: 12px;&quot;&gt;红信号线&lt;/font&gt;" style="edgeLabel;html=1;align=center;verticalAlign=middle;resizable=0;points=[];" parent="HEp67iWyr1RidV_tDCYu-386" vertex="1" connectable="0">
          <mxGeometry x="0.0151" y="2" relative="1" as="geometry">
            <mxPoint as="offset" />
          </mxGeometry>
        </mxCell>
        <mxCell id="HEp67iWyr1RidV_tDCYu-388" value="" style="endArrow=classic;html=1;rounded=0;endFill=1;strokeColor=#00CC00;" parent="Ru3RgFExYkWAiuwz_G7w-195" edge="1">
          <mxGeometry width="50" height="50" relative="1" as="geometry">
            <mxPoint x="227.97764397905758" y="130" as="sourcePoint" />
            <mxPoint x="393.4802617801047" y="130" as="targetPoint" />
          </mxGeometry>
        </mxCell>
        <mxCell id="HEp67iWyr1RidV_tDCYu-389" value="&lt;font style=&quot;font-size: 12px;&quot;&gt;绿信号线&lt;/font&gt;" style="edgeLabel;html=1;align=center;verticalAlign=middle;resizable=0;points=[];fontFamily=Helvetica;fontSize=11;fontColor=default;labelBackgroundColor=default;fillColor=none;gradientColor=none;" parent="HEp67iWyr1RidV_tDCYu-388" vertex="1" connectable="0">
          <mxGeometry x="0.0151" y="2" relative="1" as="geometry">
            <mxPoint as="offset" />
          </mxGeometry>
        </mxCell>
      </root>
    </mxGraphModel>
  </diagram>
</mxfile>
